/* XPM */
static char *door_21754906328[] = {
/* columns rows colors chars-per-pixel */
"75 75 256 2 ",
"   c #0B0501",
".  c #130300",
"X  c #1B0200",
"o  c #1C0C02",
"O  c #180908",
"+  c #1C1006",
"@  c #240200",
"#  c #2B0200",
"$  c #230B01",
"%  c #2C0C01",
"&  c #250E0A",
"*  c #320300",
"=  c #3B0600",
"-  c #330C01",
";  c #3B0D00",
":  c #3A0F08",
">  c #241202",
",  c #2B1202",
"<  c #2C1902",
"1  c #28140B",
"2  c #341401",
"3  c #3C1401",
"4  c #331A01",
"5  c #3B1A03",
"6  c #34150A",
"7  c #3C150B",
"8  c #351B0C",
"9  c #3C1C0A",
"0  c #3C1C14",
"q  c #2C1E15",
"w  c #3C230B",
"e  c #3B2204",
"r  c #3A2414",
"t  c #332809",
"y  c #3E3922",
"u  c #440D00",
"i  c #480500",
"p  c #540900",
"a  c #431400",
"s  c #4A1400",
"d  c #431B03",
"f  c #4B1B03",
"g  c #441D0A",
"h  c #4A1E0B",
"j  c #49170A",
"k  c #531C02",
"l  c #5A1D01",
"z  c #551806",
"x  c #4B1911",
"c  c #681A00",
"v  c #6E1E07",
"b  c #432103",
"n  c #4B2203",
"m  c #45230C",
"M  c #4B230C",
"N  c #4B290E",
"B  c #532402",
"V  c #5C2302",
"C  c #552904",
"Z  c #5D2B04",
"A  c #53230B",
"S  c #5B240B",
"D  c #54290C",
"F  c #5B2A0C",
"G  c #5C310D",
"H  c #57310C",
"J  c #422313",
"K  c #4A2513",
"L  c #4B2C15",
"P  c #462A19",
"I  c #532413",
"U  c #5C2413",
"Y  c #542B13",
"T  c #5B2D14",
"R  c #532C1A",
"E  c #5C2E1A",
"W  c #473219",
"Q  c #5C3113",
"!  c #55321C",
"~  c #5C341B",
"^  c #573417",
"/  c #632503",
"(  c #632B03",
")  c #6B2B03",
"_  c #632C0C",
"`  c #6A2C0C",
"'  c #642509",
"]  c #742501",
"[  c #7A2400",
"{  c #742B03",
"}  c #7C2C05",
"|  c #732D0B",
" . c #7B2D0B",
".. c #76260A",
"X. c #6B3104",
"o. c #64330C",
"O. c #6C340B",
"+. c #6A3600",
"@. c #74320C",
"#. c #7B330C",
"$. c #773609",
"%. c #632C13",
"&. c #6C2D14",
"*. c #652C1A",
"=. c #6B2D19",
"-. c #642615",
";. c #752D14",
":. c #762F18",
">. c #653314",
",. c #6C3213",
"<. c #63351C",
"1. c #6D331B",
"2. c #633A1C",
"3. c #6B3918",
"4. c #743314",
"5. c #7B3413",
"6. c #7C3B15",
"7. c #74341B",
"8. c #7C351A",
"9. c #743A1C",
"0. c #7B3B1A",
"q. c #753B16",
"w. c #593625",
"e. c #572C20",
"r. c #682D24",
"t. c #633C23",
"y. c #673826",
"u. c #763926",
"i. c #713E33",
"p. c #7A420D",
"a. c #79431B",
"s. c #6D412A",
"d. c #774426",
"f. c #784B3A",
"g. c #684633",
"h. c #5F4229",
"j. c #795747",
"k. c #832D03",
"l. c #872C0C",
"z. c #8C3402",
"x. c #83330C",
"c. c #8C340B",
"v. c #8D3D0B",
"b. c #873806",
"n. c #933502",
"m. c #953B03",
"M. c #9B3B03",
"N. c #92350C",
"B. c #943C0C",
"V. c #9A3D0C",
"C. c #9A3404",
"Z. c #862E14",
"A. c #833512",
"S. c #8B3514",
"D. c #843A14",
"F. c #8D3B14",
"G. c #833C1A",
"H. c #8A391B",
"J. c #933C13",
"K. c #973917",
"L. c #972D0F",
"P. c #A53C04",
"I. c #A33B18",
"U. c #B03900",
"Y. c #843D25",
"T. c #963B24",
"R. c #A93C23",
"E. c #9B430B",
"W. c #9B4708",
"Q. c #894618",
"!. c #9C4314",
"~. c #95431B",
"^. c #984718",
"/. c #984F14",
"(. c #A4440C",
"). c #A64607",
"_. c #B34806",
"`. c #A44B14",
"'. c #A4451B",
"]. c #A54B1D",
"[. c #A84616",
"{. c #B74C13",
"}. c #A7541B",
"|. c #B9571A",
" X c #BC520F",
".X c #B2661D",
"XX c #844323",
"oX c #884727",
"OX c #974826",
"+X c #98572A",
"@X c #864B37",
"#X c #984A35",
"$X c #88573A",
"%X c #975838",
"&X c #89522A",
"*X c #A34D24",
"=X c #A54B27",
"-X c #B74827",
";X c #A45C2D",
":X c #A85825",
">X c #B55725",
",X c #A55B34",
"<X c #B35B34",
"1X c #B74730",
"2X c #97643A",
"3X c #8F633A",
"4X c #AB6426",
"5X c #B96829",
"6X c #A96438",
"7X c #B56C3A",
"8X c #B76537",
"9X c #BB7537",
"0X c #AC733F",
"qX c #9F611A",
"wX c #C7561A",
"eX c #D65C1E",
"rX c #C65C26",
"tX c #D35F24",
"yX c #C75E37",
"uX c #C86628",
"iX c #D5672A",
"pX c #C66A35",
"aX c #D56A34",
"sX c #C37330",
"dX c #E47133",
"fX c #E36D2B",
"gX c #865D45",
"hX c #955843",
"jX c #894F41",
"kX c #A45D48",
"lX c #946851",
"zX c #A86643",
"xX c #B67546",
"cX c #A76853",
"vX c #AC7A59",
"bX c #B77757",
"nX c #B66C4D",
"mX c #967667",
"MX c #C76C45",
"NX c #C77845",
"BX c #CE784D",
"VX c #C67D63",
"CX c #E77A4D",
"ZX c #D98039",
"AX c #B8824C",
"SX c #C9854B",
"DX c #D5894B",
"FX c #CA8655",
"GX c #D78956",
"HX c #D99758",
"JX c #D3944F",
"KX c #E39653",
"LX c #CC8865",
"PX c #CE946A",
"IX c #F29C6C",
"UX c None",
/* pixels */
"UXUXUXUXUXUXUXUXUXUXUXUXUXUXUXUXUXUXUXUXUXUXUXUXUXUXUXUXUXUXUXUXUXUXUXUXUXUXUXUXUXUXUXUXUXUXUXUXUXUXUXUXUXUXUXUXUXUXUXUXUXUXUXUXUXUXUXUXUXUXUXUXUXUXUX",
"UXUXUXUXUXUXUXUXUXUXUXUXUXUXUXUXUXUXUXUXUXUXUXUXUXUXUXUXUXUXUXUXUXUXUXUXUXUXUXUXUXUXUXUXUXUXUXUXUXUXUXUXUXUXUXUXUXUXUXUXUXUXUXUXUXUXUXUXUXUXUXUXUXUXUX",
"UXUXUXUXUXUXUXUXUXUXUXUXUXUX% m 2.Q f f n M U A s s d N L L 5 3 3 g Y ^ ^ Y A S S ' :.oXhX#X$XhXlXhX$XhXcXhX%XkXcXkXj.mXUXUXUXUXUXUXUXUXUXUXUXUXUXUXUX",
"UXUXUXUXUXUXUXUXUXUXUXUXUXUX@XzX~.5XBXMX8X=X~.*X6X7X6XQ./.a.6X2X%XXX0.XXOX,X,X,XOXOX~.7X:X,X,X8X7X;XOXbXzXGX,XSX8XbXcXmXUXUXUXUXUXUXUXUXUXUXUXUXUXUXUX",
"UXUXUXUXUXUXUXUXUXUXUXUXUXUXA.MX{.iXdXtX_.wXiXwX{.{.|.n.sXz.>X^.c.J.'.<XpX=XV.*XsX8XqXSXqX4X4X5X5X:X/.GX7XIX9XHX4XSXLXcXUXUXUXUXUXUXUXUXUXUXUXUXUXUXUX",
"UXUXUXUXUXUXUXUXUXUXUXUXUXUXK.BX_.fXeXeXtXtXtXrXiX_.iXm.uX).|.[.(.V.(.|.pXuX.XuXsX9X5XSX4X7X7X0X8X6X2XPXLXHXSXJX9XFXbXf.UXUXUXUXUXUXUXUXUXUXUXUXUXUXUX",
"UXUXUXUXUXUXUXUXUXUXUXUXUXUXS.aXP.fXU.wXaXtXwXrXpXP.aXn.}.`.W.m.C.z.z.W..X5X.X.X.X4X4X6X6XzXzX%X%X3XlXAXPXlXFXJXJXSXnXI UXUXUXUXUXUXUXUXUXUXUXUXUXUXUX",
"UXUXUXUXUXUXUXUXUXUXUXUXUXUXT.yX|.iXU.tX{.|.|.}.`.m.>Xn.Q.Q.+X%X%Xf.a.O.X.+.o.o.H d.$Xa.G s.gXgXj.j.gXlXAXg.AXAXHXGXbXe.UXUXUXUXUXUXUXUXUXUXUXUXUXUXUX",
"UXUXUXUXUXUXUXUXUXUXUXUXUXUX#X<XdXuX_.iXC.(.].v.{ c.I.m.] k - UXUXUXUXX UXUXUXUXUXUXUXUXUXUXUXUXUXUXUXUXUX$ 3XAXJXHXVXi.UXUXUXUXUXUXUXUXUXUXUXUXUXUXUX",
"UXUXUXUXUXUXUXUXUXUXUXUXUXUX#X>XM.)._.iXM.(.!.) s J.n.=X[ O.UX@ UXUXUXUXUXUXUXUXUXUXUXUXUXUXUXUXUXUXUXUXUXUX3XAXHXGXnXj.UXUXUXUXUXUXUXUXUXUXUXUXUXUXUX",
"UXUXUXUXUXUXUXUXUXUXUXUXUXUXY.BX X_.P.iX(.(.J.c = oX[ MXc.OX* 3 x u # O UXO UX# # : 1 O UXUXUXUXUXUXUXUXUXo 2XFXKXGXzXgXUXUXUXUXUXUXUXUXUXUXUXUXUXUXUX",
"UXUXUXUXUXUXUXUXUXUXUXUXUXUXXXrX XwXP.uXB.K.S.| * l G.<XB.Q.k V &.kXjXf.3 r.i.*.I I cXjX= @ UXUXUXUXUXUXUXe 2XSXKXGXnXf.UXUXUXUXUXUXUXUXUXUXUXUXUXUXUX",
"UXUXUXUXUXUXUXUXUXUXUXUXUXUXd.].wXfXC.rXz.J.S.oX# # +XOXV.S.6.D.H.MXK.8X+.{ l.:.d.i <XIXyXS.= . UXUXUXUXUXW 2XSXKXGXnXe.UXUXUXUXUXUXUXUXUXUXUXUXUXUXUX",
"UXUXUXUXUXUXUXUXUXUXUXUXUXUX_ ]._.aXC.>Xz.J.Z.u.A s XXK.'.[ l ] K.8X`.+X+.p S.5.8.] <XCXaXMXcX0 UXUXUXUXUXw zXFXDXGXnXJ UXUXUXUXUXUXUXUXUXUXUXUXUXUXUX",
"UXUXUXUXUXUXUXUXUXUXUXUXUXUXd :XC.iXC.sXB.S.l.7.d.a.5.F.'.^.^.V.N.V.^.Q.p.# K.k. .^.>XrXaXMXcX@ UXUXUXUXUX, vXBXDXGXbX, UXUXUXUXUXUXUXUXUXUXUXUXUXUXUX",
"UXUXUXUXUXUXUXUXUXUXUXUXUXUX; ,X(.wXM.pX^.z.K.5.y.u.A.F.!.!.V.E.'.k.*XF./.] [.K.v.`.{.{.wXyXzX# UXUXUXUX  2 bXGXDXDXbX& UXUXUXUXUXUXUXUXUXUXUXUXUXUXUX",
"UXUXUXUXUXUXUXUXUXUXUXUXUXUX; ,X*X`.M.pX}.v K.;.S ` D.F.!.V.V.[.>Xk.[.'.-XrX-X[./.`._._._.}.%X# UXUXUXUXUX8 VXGXGXFXvX1 UXUXUXUXUXUXUXUXUXUXUXUXUXUXUX",
"UXUXUXUXUXUXUXUXUXUXUXUXUXUX- zX!.(.C.8XE.c x.8.3 UXs { ~.V.V.[.>Xn.I.<XT.=X'.!./.}.|._.U.].%X@ UXUXUXUXUX! LX,X:XxXvX1 UXUXUXUXUXUXUXUXUXUXUXUXUXUXUX",
"UXUXUXUXUXUXUXUXUXUXUXUXUXUX* zXv.V.z.5Xz.p v u.# UXX l J.V.C.(.[.[.I.<X5.5.G.D.J.:XuX{.P.!.%X@ UXUXUXUXUXy.VX8XKXFXlX& UXUXUXUXUXUXUXUXUXUXUXUXUXUXUX",
"UXUXUXUXUXUXUXUXUXUXUXUXUXUX* zXJ.(.m.5Xv.p Y.u.- . UXf OX'.n.V.(.{.I.OX_ f s 9.A.c.k.C.C.;Xd.% UXUXUXUXUXy.bX8XSXSXAXr UXUXUXUXUXUXUXUXUXUXUXUXUXUXUX",
"UXUXUXUXUXUXUXUXUXUXUXUXUXUX% #X^.].E.5XW.p %Xr.0 UXUXC =XI.z.M.).[.R.Z.M UXX 3...OX=X(.z.<XE 8 UXUXUXUXUXw.zXNX5XQ._ , UXUXUXUXUXUXUXUXUXUXUXUXUXUXUX",
"UXUXUXUXUXUXUXUXUXUXUXUXUXUX@ 9.~.'.E.|.W.] #Xs.6 UX. F #X*Xn.M.(.[.1XZ.J , X u.A.K.~.!.V.+XT 6 UXUXUXUXUXt.zX9X4X6XF , UXUXUXUXUXUXUXUXUXUXUXUXUXUXUX",
"UXUXUXUXUXUXUXUXUXUXUXUXUXUXo l K.!.W.W.W.I.Z.@XUXUX$ %.=X*XN.W.(.-X1Xu.w UX% oX~.K.N.[.].Q.E UXUXUXUXUX@ y.zX7X4XxXD 1 UXUXUXUXUXUXUXUXUXUXUXUXUXUXUX",
"UXUXUXUXUXUXUXUXUXUXUXUXUXUXUXk K.*XE.W.).[.K.u.% UX% ' #X} n.m.E.[.1Xu.y UX= hXF.V.N.V.!.5.Y & UXUXUXUX% y.zX7X4X+XD % UXUXUXUXUXUXUXUXUXUXUXUXUXUXUX",
"UXUXUXUXUXUXUXUXUXUXUXUXUXUXUXn S.*X].).).U.=X=.6 UX* ' +Xc c.z.m.[.R.u.y UX; zXc.B.n.V.B.| I & UXUXUXUX- y.zX6XqXp.C UXUXUXUXUXUXUXUXUXUXUXUXUXUXUXUX",
"UXUXUXUXUXUXUXUXUXUXUXUXUXUX  A T.L.4X).P.P.R.;.w UX* 7.XX[ n.z.m.I.R.i.1 UXs oXx.v.V.N.k.XXM UXUXUXUXUX% <.0X6XqX/.d $ UXUXUXUXUXUXUXUXUXUXUXUXUXUXUX",
"UXUXUXUXUXUXUXUXUXUXUXUXUXUXUXA OX[ qX/.M.P.I.r.P 2 * oX6.J.v.m.W.K.K.@XUX4 C ) #.v.^.m.} +Xg UXUXUXUXUX# <.2X4X/.;X2 UXUXUXUXUXUXUXUXUXUXUXUXUXUXUXUX",
"UXUXUXUXUXUXUXUXUXUXUXUXUXUXo A T.D./.W.C.I.I.:.P UX* @X5.S.k.z.b.V.L.Y.o UXF ` Q.v.b.b.k.d.m o UXUXUXUX= d.&X4X/.oX3 UXUXUXUXUXUXUXUXUXUXUXUXUXUXUXUX",
"UXUXUXUXUXUXUXUXUXUXUXUXUXUXUXA H.~.Q.W.b.n.K.u.r < # oX5.x.[ k.c.N.l.XX2 UXo.0.oXQ.{ b.x.&.P UXUXUXUXUX3 $Xa.:X:X6.a UXUXUXUXUXUXUXUXUXUXUXUXUXUXUXUX",
"UXUXUXUXUXUXUXUXUXUXUXUXUXUX. A OXx.Q.v.z.c.Z.=.L UXa q.D.x.] k.b.L.l.oX- - 3.6.Q.x.} } #._ R & UXUXUXUX2 $X0.*X}.X.UXUXUXUXUXUXUXUXUXUXUXUXUXUXUXUXUX",
"UXUXUXUXUXUXUXUXUXUXUXUXUXUXUXM OXc Q.v.z.} ..%.w.UXS ` F.6.{ } l.N.l.OX; / 6.D.#.x.x.k.} _ P UXUXUXUXUX4 $Xa.^.}.( UXUXUXUXUXUXUXUXUXUXUXUXUXUXUXUXUX",
"UXUXUXUXUXUXUXUXUXUXUXUXUXUX  d Y.] F.E.B.} / U R # V 0.#.c X.k.l.c.x.H.c $.#.6.x.D.x.[ ] 9.g UXUXUXUXUX4 d.oX*X].( UXUXUXUXUXUXUXUXUXUXUXUXUXUXUXUXUX",
"UXUXUXUXUXUXUXUXUXUXUXUXUXUXUXUX4.A.#.E.~.#.V A E # V OX] i X.#.K.S.x.x.D.x.} #.S.A.x.[ c oX- UXUXUXUXUXw 3.&XOX[.Z UXUXUXUXUXUXUXUXUXUXUXUXUXUXUXUXUX",
"UXUXUXUXUXUXUXUXUXUXUXUXUXUXUX% u.D.} S.~.#.V T t.UX_ %X,X$.X.#.S.S.x. .D.#.} }  .x.k.x.{ 7.2 O UXUXUXUXL 2.Q.<XV.B UXUXUXUXUXUXUXUXUXUXUXUXUXUXUXUXUX",
"UXUXUXUXUXUXUXUXUXUXUXUXUXUXUXUX&XH.} A.~.5./ %.y.# 9.| x.#.+.6.S.S.5.| | { | }  .} } x.#.F g UXUXUXUXUX~ 3. .nXc.n UXUXUXUXUXUXUXUXUXUXUXUXUXUXUXUXUX",
"UXUXUXUXUXUXUXUXUXUXUXUXUXUXUX$ 0.5.{ S.Q.#._ >.s.UX9.oX} #.O.x.S.S.| 6.l ' @.#. .} } #.5.F J UXUXUXUXUXt.7.l.;XD.n UXUXUXUXUXUXUXUXUXUXUXUXUXUXUXUXUX",
"UXUXUXUXUXUXUXUXUXUXUXUXUXUXUXUX_ | @.D.F.5.` <.s.# 9.%Xc { O.6.F.A./ d.s V 4.#.#.#.} #.@.>.P & UXUXUXUXt.0.A.H.Q.n UXUXUXUXUXUXUXUXUXUXUXUXUXUXUXUXUX",
"UXUXUXUXUXUXUXUXUXUXUXUXUXUXUXUX%.;.@.A.F.5.` %.<.* 7.oX..) +.@.#.#./ d.* k ,.@.| } #.#.4.*.0 UXUXUXUXUX3.8.H.D.6.b UXUXUXUXUXUXUXUXUXUXUXUXUXUXUXUXUX",
"UXUXUXUXUXUXUXUXUXUXUXUXUXUXUXUX1.,.O.6.S.#.' D Y = :.;.5.) ( / { | ' 3.UXa &.| / $.6.D.5.T 0 UXUXUXUX< Q 5.H.A.4.e UXUXUXUXUXUXUXUXUXUXUXUXUXUXUXUXUX",
"UXUXUXUXUXUXUXUXUXUXUXUXUXUXUXUXS Q o.5.H. ._ C H = ;.;.4./ l / +.` / 2.. a 7.| ( ) { @.@.A 8 O UXUXUXUX%.5.H.8.O.5 UXUXUXUXUXUXUXUXUXUXUXUXUXUXUXUXUX",
"UXUXUXUXUXUXUXUXUXUXUXUXUXUXUXUXf D G 6.H. ./ C ^ = ;.;.O.l i l ) O./ w.UXd 7.4./ / / ) ` A 6 UXUXUXUX2 %.8.H.G.>.4 UXUXUXUXUXUXUXUXUXUXUXUXUXUXUXUXUX",
"UXUXUXUXUXUXUXUXUXUXUXUXUXUXUXUXf D >.4.A...V D Y = 7.&.&.5.Q.O.Z ( ' t.UX3 &.&.Z / / ) ) D 8 UXUXUXUXUX_ 8.A.5.>.4 UXUXUXUXUXUXUXUXUXUXUXUXUXUXUXUXUX",
"UXUXUXUXUXUXUXUXUXUXUXUXUXUXUXUXM Y 3.q. .' l n Y = 7.;.>./ l V Z _ ' t.. 2 U _ / ) ] ) X.D 0 UXUXUXUX< _ 5.8.:.>.< UXUXUXUXUXUXUXUXUXUXUXUXUXUXUXUXUX",
"UXUXUXUXUXUXUXUXUXUXUXUXUXUXUXUX3 <.U 6.H.) k f T ; <.%.V ' ' / C _ 1.R UX4 Q Z l / ) X.) n 4 UXUXUXUX< &.5.:.4.T < UXUXUXUXUXUXUXUXUXUXUXUXUXUXUXUXUX",
"UXUXUXUXUXUXUXUXUXUXUXUXUXUXUXUX% s.z 0.oX` s s ^ ; <.S l V ,.( B >.u.g $ 4 ~ F l / $.$.+.f > UXUXUXUXe ,.8.5.:.Y < UXUXUXUXUXUXUXUXUXUXUXUXUXUXUXUXUX",
"UXUXUXUXUXUXUXUXUXUXUXUXUXUXUXUX# y.s 4.XX` s s T * <.%.k k B B B ,.=.Y UX5 <.F l l Z +.p.C UX. UXUXUX< ,.7.:.=.Y UXUXUXUXUXUXUXUXUXUXUXUXUXUXUXUXUXUX",
"UXUXUXUXUXUXUXUXUXUXUXUXUXUXUXUX# r.a _ 0._ s d Y % *.T S s 2 d B -.U y.UX5 t.F s q.+X+Xa.C > UXUXUXUX4 >.4.:.*.R UXUXUXUXUXUXUXUXUXUXUXUXUXUXUXUXUXUX",
"UXUXUXUXUXUXUXUXUXUXUXUXUXUXUXUX@ y.s >.6./ ; D g 2 I S ' d e - %.l =.! UX5 *.s 3 &XPXAX+XH UXUXUXUXUX4 G ,.&.<.L $ UXUXUXUXUXUXUXUXUXUXUXUXUXUXUXUXUX",
"UXUXUXUXUXUXUXUXUXUXUXUXUXUXUXUX@ i.K 1.0.V * <.3 g d z z n t $ u.i u.g UX5 *.s - o.2X0X6XG UXUXUXUXUX4 H >.=.*.P UXUXUXUXUXUXUXUXUXUXUXUXUXUXUXUXUXUX",
"UXUXUXUXUXUXUXUXUXUXUXUXUXUXUXUX@ e.U 1.q.Z ; D d g f k s D < 2 %.z u.5 > g =.f 2 C a.$.Q.n UXUXUXUX. 4 G ,.:.Y r UXUXUXUXUXUXUXUXUXUXUXUXUXUXUXUXUXUX",
"UXUXUXUXUXUXUXUXUXUXUXUXUXUXUXUX& j U 1.q._ s d M h h f u ^ . 5 z %.-.7 $ g *.h 4 d Z * G 5 X UXUXUXUX5 F 4.:.I 6 o UXUXUXUXUXUXUXUXUXUXUXUXUXUXUXUXUX",
"UXUXUXUXUXUXUXUXUXUXUXUXUXUXUXUXUX: *.,.O.F n d d ~ d z A D , % U =.z Y , h *.h 2 b H s Z 4 UXUXUXUX  5 O.4.=.I < UXUXUXUXUXUXUXUXUXUXUXUXUXUXUXUXUXUX",
"UXUXUXUXUXUXUXUXUXUXUXUXUXUXUXUX. 7 r.1.o.Z k f d s.3 A %.n e X ~ U p y., h U h 2 b G 2._ 2 UXUXUXUXUXe @.4.' x 1 UXUXUXUXUXUXUXUXUXUXUXUXUXUXUXUXUXUX",
"UXUXUXUXUXUXUXUXUXUXUXUXUXUXUXUXUX6 -.=.o.Z s d 3 R - s F m N X t.s -.t.2 h U g < g D >.F - UXUXUXUXUXb O.4.&.K < UXUXUXUXUXUXUXUXUXUXUXUXUXUXUXUXUXUX",
"UXUXUXUXUXUXUXUXUXUXUXUXUXUXUXUX  : -.%.G B a 3 d - ; d M M N @ t.= u.U 5 g I m 4 g N A A 2 UXUXUXUXo e ` 4.=.h >   UXUXUXUXUXUXUXUXUXUXUXUXUXUXUXUXUX",
"UXUXUXUXUXUXUXUXUXUXUXUXUXUXUXUXUX: A V C f s f g 2 - 5 N d 4 % g x U z j g g 7 6 9 K Y I - UXUXUXUXo d ( O.&.g UXUXUXUXUXUXUXUXUXUXUXUXUXUXUXUXUXUXUX",
"UXUXUXUXUXUXUXUXUXUXUXUXUXUXUXUX  6 j k n B A M K 3 - d N 2 @ % % y.i s h g - 2 6 9 K I I 6 UXUXUXUXo d Z ,.=.7 UXUXUXUXUXUXUXUXUXUXUXUXUXUXUXUXUXUXUX",
"UXUXUXUXUXUXUXUXUXUXUXUXUXUXUXUXUX$ j z C B A N g M m N L Y ^ % 2 i.r.U a E g.P $ J 7 K K , UXUXUXUX$ 5 Z &.*.7 UXUXUXUXUXUXUXUXUXUXUXUXUXUXUXUXUXUXUX",
"UXUXUXUXUXUXUXUXUXUXUXUXUXUXUXUXUX$ g U _ C n d h I ~ 2.Q d - UXY j a u a d 9 , UXP * d J 1 UXUXUXUX$ a F =.r.7 UXUXUXUXUXUXUXUXUXUXUXUXUXUXUXUXUXUXUX",
"UXUXUXUXUXUXUXUXUXUXUXUXUXUXUXUXUXUXJ x s Q e b f M D N C M D 3 ~ D A f f d w >   P # 5 J > UXUXUXUXX R f =.r.0 UXUXUXUXUXUXUXUXUXUXUXUXUXUXUXUXUXUXUX",
"UXUXUXUXUXUXUXUXUXUXUXUXUXUXUXUXUX1 r g ; 2.4 5 f a a 3 d A ~ t.t.<.<.Y M g 9 > UXP @ 3 r 1 UXUXUXUXUXw.a -.r.0 UXUXUXUXUXUXUXUXUXUXUXUXUXUXUXUXUXUXUX",
"UXUXUXUXUXUXUXUXUXUXUXUXUXUXUXUXUXUXr r ; h.> , % % % 2 e m N 5 # 3 N ~ 3 ~ m w < m - 3 e > UXUXUXUX. P 7 x x & UXUXUXUXUXUXUXUXUXUXUXUXUXUXUXUXUXUXUX",
"UXUXUXUXUXUXUXUXUXUXUXUXUXUXUXUXUX+ q r 6 w.UXUXUXUX. UXr 2 $ 9 P m 2 ~ # g.! ! L m m f d < UXUXUXUXUX& 8 1 UXUXUXUXUXUXUXUXUXUXUXUXUXUXUXUXUXUXUXUXUX",
"UXUXUXUXUXUXUXUXUXUXUXUXUXUXUXUXUXUX+ + + q UXUXUXUXUXUX+ X UX> 6 9 9 R - m # 5 R N L Y z , UXUXUXUXUXUXUXUXUXUXUXUXUXUXUXUXUXUXUXUXUXUXUXUXUXUXUXUXUX",
"UXUXUXUXUXUXUXUXUXUXUXUXUXUXUXUXUXUXUXUXUXUXUXUXUXUXUXUXUXUXUXUX> 8 P 5 2 g ! I j K W Q -.2 UXUXUXUXUXUXUXUXUXUXUXUXUXUXUXUXUXUXUXUXUXUXUXUXUXUXUXUXUX",
"UXUXUXUXUXUXUXUXUXUXUXUXUXUXUXUXUXUXUXUXUXUXUXUXUXUXUXUXUXUXUXUXUX$ q > < 6 J g a 3 e N I 2 UXUXUXUXUXUXUXUXUXUXUXUXUXUXUXUXUXUXUXUXUXUXUXUXUXUXUXUXUX",
"UXUXUXUXUXUXUXUXUXUXUXUXUXUXUXUXUXUXUXUXUXUXUXUXUXUXUXUXUXUXUXUXUXUXUXO $ 1 9 6 % $ , 5 g > UXUXUXUXUXUXUXUXUXUXUXUXUXUXUXUXUXUXUXUXUXUXUXUXUXUXUXUXUX",
"UXUXUXUXUXUXUXUXUXUXUXUXUXUXUXUXUXUXUXUXUXUXUXUXUXUXUXUXUXUXUXUXUXUXUXUXUXo > $ $ 1 r 8 8 o UXUXUXUXUXUXUXUXUXUXUXUXUXUXUXUXUXUXUXUXUXUXUXUXUXUXUXUXUX",
"UXUXUXUXUXUXUXUXUXUXUXUXUXUXUXUXUXUXUXUXUXUXUXUXUXUXUXUXUXUXUXUXUXUXUXUXUXUXUXUX$ 8 r r + . UXUXUXUXUXUXUXUXUXUXUXUXUXUXUXUXUXUXUXUXUXUXUXUXUXUXUXUXUX",
"UXUXUXUXUXUXUXUXUXUXUXUXUXUXUXUXUXUXUXUXUXUXUXUXUXUXUXUXUXUXUXUXUXUXUXUXUXUXUXUXUXo UX+ UXUXUXUXUXUXUXUXUXUXUXUXUXUXUXUXUXUXUXUXUXUXUXUXUXUXUXUXUXUXUX",
"UXUXUXUXUXUXUXUXUXUXUXUXUXUXUXUXUXUXUXUXUXUXUXUXUXUXUXUXUXUXUXUXUXUXUXUXUXUXUXUXUXUXUXUXUXUXUXUXUXUXUXUXUXUXUXUXUXUXUXUXUXUXUXUXUXUXUXUXUXUXUXUXUXUXUX",
"UXUXUXUXUXUXUXUXUXUXUXUXUXUXUXUXUXUXUXUXUXUXUXUXUXUXUXUXUXUXUXUXUXUXUXUXUXUXUXUXUXUXUXUXUXUXUXUXUXUXUXUXUXUXUXUXUXUXUXUXUXUXUXUXUXUXUXUXUXUXUXUXUXUXUX",
"UXUXUXUXUXUXUXUXUXUXUXUXUXUXUXUXUXUXUXUXUXUXUXUXUXUXUXUXUXUXUXUXUXUXUXUXUXUXUXUXUXUXUXUXUXUXUXUXUXUXUXUXUXUXUXUXUXUXUXUXUXUXUXUXUXUXUXUXUXUXUXUXUXUXUX",
"UXUXUXUXUXUXUXUXUXUXUXUXUXUXUXUXUXUXUXUXUXUXUXUXUXUXUXUXUXUXUXUXUXUXUXUXUXUXUXUXUXUXUXUXUXUXUXUXUXUXUXUXUXUXUXUXUXUXUXUXUXUXUXUXUXUXUXUXUXUXUXUXUXUXUX",
"UXUXUXUXUXUXUXUXUXUXUXUXUXUXUXUXUXUXUXUXUXUXUXUXUXUXUXUXUXUXUXUXUXUXUXUXUXUXUXUXUXUXUXUXUXUXUXUXUXUXUXUXUXUXUXUXUXUXUXUXUXUXUXUXUXUXUXUXUXUXUXUXUXUXUX"
};
