/* XPM */
static char *door_31754906368[] = {
/* columns rows colors chars-per-pixel */
"75 75 247 2 ",
"   c #0D0400",
".  c #0C0B03",
"X  c #130200",
"o  c #1C0301",
"O  c #1D0A02",
"+  c #160C05",
"@  c #1D1208",
"#  c #240201",
"$  c #2B0301",
"%  c #250B01",
"&  c #2B0B01",
"*  c #240D0B",
"=  c #330300",
"-  c #3C0300",
";  c #350B00",
":  c #3B0C00",
">  c #320D0B",
",  c #2C1201",
"<  c #291409",
"1  c #341301",
"2  c #3C1400",
"3  c #351905",
"4  c #3D1B04",
"5  c #341B0A",
"6  c #3C1D0A",
"7  c #3A160A",
"8  c #2C1814",
"9  c #331C13",
"0  c #351A14",
"q  c #39240A",
"w  c #3D2214",
"e  c #392619",
"r  c #2E221A",
"t  c #3F2620",
"y  c #430600",
"u  c #430C00",
"i  c #4B0E00",
"p  c #520A00",
"a  c #441401",
"s  c #4A1401",
"d  c #441B02",
"f  c #4C1B02",
"g  c #431E0C",
"h  c #491B0B",
"j  c #541500",
"k  c #541B01",
"l  c #5C1D00",
"z  c #561806",
"x  c #471B13",
"c  c #571C14",
"v  c #651C02",
"b  c #661901",
"n  c #701B00",
"m  c #4C2302",
"M  c #44220D",
"N  c #4B240B",
"B  c #452807",
"V  c #542303",
"C  c #5B2303",
"Z  c #552B03",
"A  c #5E2B04",
"S  c #54240C",
"D  c #5D230A",
"F  c #55290C",
"G  c #5A2A0B",
"H  c #5B340D",
"J  c #5A360D",
"K  c #442413",
"L  c #4C2A13",
"P  c #48281A",
"I  c #542B13",
"U  c #5B2D13",
"Y  c #522B1A",
"T  c #592816",
"R  c #4B3617",
"E  c #5D3314",
"W  c #5E3914",
"Q  c #5C331B",
"!  c #553418",
"~  c #632304",
"^  c #6C2302",
"/  c #6C2C05",
"(  c #632609",
")  c #6A250B",
"_  c #642B0D",
"`  c #6B2C0C",
"'  c #612A03",
"]  c #722501",
"[  c #742A03",
"{  c #7C2D04",
"}  c #732D0B",
"|  c #7B2E0C",
" . c #762407",
".. c #623205",
"X. c #64320C",
"o. c #6B320C",
"O. c #6A370A",
"+. c #7C3204",
"@. c #73330C",
"#. c #7B330B",
"$. c #7B3C0E",
"%. c #753608",
"&. c #642D12",
"*. c #6B2D12",
"=. c #652917",
"-. c #732C12",
";. c #732B19",
":. c #643213",
">. c #6C3213",
",. c #64341B",
"<. c #6B341B",
"1. c #673B15",
"2. c #743314",
"3. c #7B3314",
"4. c #7C3B14",
"5. c #74341C",
"6. c #723A1E",
"7. c #7B3B1C",
"8. c #783817",
"9. c #4D2B24",
"0. c #592C26",
"q. c #5A3222",
"w. c #593829",
"e. c #5A3533",
"r. c #473426",
"t. c #672C29",
"y. c #633923",
"u. c #653829",
"i. c #7B3D24",
"p. c #753B23",
"a. c #663A3B",
"s. c #752F20",
"d. c #7C430C",
"f. c #794219",
"g. c #6A4426",
"h. c #764422",
"j. c #7B4523",
"k. c #76472D",
"l. c #6B4735",
"z. c #784432",
"x. c #7D5B3D",
"c. c #7A5E4A",
"v. c #7A4E42",
"b. c #7D614A",
"n. c #8C1E00",
"m. c #832500",
"M. c #852A00",
"N. c #892D05",
"B. c #833304",
"V. c #8D3505",
"C. c #82360D",
"Z. c #8C360C",
"A. c #843A0D",
"S. c #883B07",
"D. c #923301",
"F. c #9C3300",
"G. c #943D0C",
"H. c #973908",
"J. c #833B1A",
"K. c #873814",
"L. c #993608",
"P. c #A33402",
"I. c #A53B04",
"U. c #A93D12",
"Y. c #843B24",
"T. c #983C21",
"R. c #9B410D",
"E. c #834314",
"W. c #89451A",
"Q. c #984618",
"!. c #8F4D18",
"~. c #A7440A",
"^. c #B44808",
"/. c #A74815",
"(. c #B54A15",
"). c #AA5919",
"_. c #B3571B",
"`. c #B75009",
"'. c #884826",
"]. c #974A27",
"[. c #885226",
"{. c #9A5527",
"}. c #954D32",
"|. c #895836",
" X c #9B5C34",
".X c #985639",
"XX c #8C4F38",
"oX c #A35D2C",
"OX c #A85827",
"+X c #B55C2A",
"@X c #B55725",
"#X c #A85B36",
"$X c #B35C32",
"%X c #97632A",
"&X c #99653A",
"*X c #AA6227",
"=X c #B7652B",
"-X c #A76538",
";X c #B46334",
":X c #B76937",
">X c #BC743B",
",X c #BA753B",
"<X c #BC702E",
"1X c #CA5617",
"2X c #CE651C",
"3X c #C65C25",
"4X c #D25F22",
"5X c #CB6329",
"6X c #D56628",
"7X c #C26233",
"8X c #C16C3B",
"9X c #C76936",
"0X c #D86D35",
"qX c #C9723A",
"wX c #C7722D",
"eX c #E97333",
"rX c #875647",
"tX c #9B5C48",
"yX c #BA5D48",
"uX c #91674D",
"iX c #A76746",
"pX c #BC6B41",
"aX c #B76A46",
"sX c #BA7644",
"dX c #B86E52",
"fX c #AC7854",
"gX c #B57957",
"hX c #A46D4F",
"jX c #987A61",
"kX c #C37945",
"lX c #C77457",
"zX c #C77C63",
"xX c #B68465",
"cX c #CC834A",
"vX c #D88A4C",
"bX c #D6934C",
"nX c #CB8856",
"mX c #D78957",
"MX c #DB955A",
"NX c #CC9149",
"BX c #E59255",
"VX c #CF8F6C",
"CX c #E99B65",
"ZX c #E6926A",
"AX c #EAA566",
"SX c #F2B181",
"DX c None",
/* pixels */
"DXDXDXDXDXDXDXDXDXDXDXDXDXDXDXDXDXDXDXDXDXDXDXDXDXDXDXDXDXDXDXDXDXDXDXDXDXDXDXDXDXDXDXDXDXDXDXDXDXDXDXDXDXDXDXDXDXDXDXDXDXDXDXDXDXDXDXDXDXDXDXDXDXDXDX",
"DXDXDXDXDXDXDXDXDXDXDXDXDXDXDXDXDXDXDXDXDXDXDXDXDXDXDXDXDXDXDXDXDXDXDXDXDXDXDXDXDXDXDXDXDXDXDXDXDXDXDXDXDXDXDXDXDXDXDXDXDXDXDXDXDXDXDXDXDXDXDXDXDXDXDX",
"DXDXDXDXDXDXDXDXDXDXDXDXDXDX& L f G :._ F F G c s S I U E # I F ! # R 2 T S S y &.s :.iXj. X[.tXiXtXXXtXhXtXj.-X%X&XuXc.DXDXDXDXDXDXDXDXDXDXDXDXDXDXDX",
"DXDXDXDXDXDXDXDXDXDXDXDXDXDXrXdX#X;X8X=X;X;XOX$XkX#XsX{.-X/ &X X'.$.fX[.dX;XaX-XaX-XoX,X{.>X#X;XaX#X{.-XgXnXNXnX,XVXiXuXDXDXDXDXDXDXDXDXDXDXDXDXDXDXDX",
"DXDXDXDXDXDXDXDXDXDXDXDXDXDXY.@X`.4XeX4XI.4X1X4X4XF.3XD.9XS.+X+XR.S.*XB.3X~.=X+X).<X%X*X+XkX$X:X:X;XoX:XcXvXcX,X#XZXlXuXDXDXDXDXDXDXDXDXDXDXDXDXDXDXDX",
"DXDXDXDXDXDXDXDXDXDXDXDXDXDXT.kX1XeX1X6X1X6X1X1X1XP.0XP.1X~.@X(.D.B.)./.9X_._.).).<X<X<X;XqX;XoX{.-X,XNXSXmXmXqXkXZXyXi.DXDXDXDXDXDXDXDXDXDXDXDXDXDXDX",
"DXDXDXDXDXDXDXDXDXDXDXDXDXDXZ.5XP.4XP.5X3X4X~.`.4XI.6Xn.I.L.U.U.~.m.R.R.).=X=X=X<X*X*XsX-X%X%X%X%X&XfXuXVX&XmXsXmXMXyXx DXDXDXDXDXDXDXDXDXDXDXDXDXDXDX",
"DXDXDXDXDXDXDXDXDXDXDXDXDXDXT.9X^.6XP.4X/.7X9X:XOXQ.:X'.aX#X].'.[.i.j.j.h.h.h.f.h.h.g.g.J g.x.x.x.rXuXc.xXx.mXkXbXmXaXu.DXDXDXDXDXDXDXDXDXDXDXDXDXDXDX",
"DXDXDXDXDXDXDXDXDXDXDXDXDXDX#XkX2X2XI.9XD.A.@./ = ; a # $ % % % DXDXDXDXDXDXDXDXDXDXDXDXDXDXDXDXDXDXDXDXDX$ -XsXNXmXlXv.DXDXDXDXDXDXDXDXDXDXDXDXDXDXDX",
"DXDXDXDXDXDXDXDXDXDXDXDXDXDXT.kX`.6XI.5XZ.C.^ '.p.y.DXDXDXDXDXDXDXDXDXDXDXDXDXDXDXDXDXDXDXDXDXDXDXDXDXDXDXDX XMXAXmXdXc.DXDXDXDXDXDXDXDXDXDXDXDXDXDXDX",
"DXDXDXDXDXDXDXDXDXDXDXDXDXDXY.8XI.6XF.+XB.W.' / / ,.%   DXDXDXDXDXDXDXDXDXDXDXDXDXDXDXDXDXDXDXDXDXDXDXDXDX# &XMXbX<XiXuXDXDXDXDXDXDXDXDXDXDXDXDXDXDXDX",
"DXDXDXDXDXDXDXDXDXDXDXDXDXDXi.7XI.0XD.7X^ / s l J.2.k M w DXDXDXDXDXDXDXDXDXDXDXDXDXDXDXDXDXDXDXDXDXDXDXDX, |.CXBXCX&Xl.DXDXDXDXDXDXDXDXDXDXDXDXDXDXDX",
"DXDXDXDXDXDXDXDXDXDXDXDXDXDXi.$X(.0XD.kXj $...A W.v 3.8.7.8.2.` D 2 DX  DXDXDXDXDXDXDXDXDXDXDXDXDXDXDXDXDXq &XcXwXAX|.L DXDXDXDXDXDXDXDXDXDXDXDXDXDXDX",
"DXDXDXDXDXDXDXDXDXDXDXDXDXDX=.#XI.0XD.8X] V = y Y.-.-.W.4.].2.-.*.<.q.DXDXDXDXDXDXDXDXDXDXDXDXDXDXDXDXDXDX3 hXMXBXAXhX5 DXDXDXDXDXDXDXDXDXDXDXDXDXDXDX",
"DXDXDXDXDXDXDXDXDXDXDXDXDXDXf OXF.6XD.=XZ.@.:.z ;.;.) './  X*.;.5.5.U K 9 DXDXDXDXDXDXDXDXDXDXDXDXDXDXDXDX, gXvXvXcXfX, DXDXDXDXDXDXDXDXDXDXDXDXDXDXDX",
"DXDXDXDXDXDXDXDXDXDXDXDXDXDXy OX~.3XL.7XZ.#.o.l J.3./ #.n ].j -.n Y.o.Q 9.DXDXDXDXDXDXDXDXDXDXDXDXDXDXDX. 1 zXcXqXqXgX1 DXDXDXDXDXDXDXDXDXDXDXDXDXDXDX",
"DXDXDXDXDXDXDXDXDXDXDXDXDXDX: #X_.(.U.7XV.#.O...W.4.%.[ b K.y -.n K./ 5.t.8 DXDXDXDXDXDXDXDXDXDXDXDXDXDXDX7 zXZXBXcXfX& DXDXDXDXDXDXDXDXDXDXDXDXDXDXDX",
"DXDXDXDXDXDXDXDXDXDXDXDXDXDX- -X/./.L.7XN.#.m f z ( #.+.{ #.D -.n B.} 5.t.0 DXDXDXDXDXDXDXDXDXDXDXDXDXDXDX0.zX$X=XpXgX> DXDXDXDXDXDXDXDXDXDXDXDXDXDXDX",
"DXDXDXDXDXDXDXDXDXDXDXDXDXDX= iXV./.H.7XB.@.1 # DXz 3.Z.Z.#.6.@.] { { 5.t.0 DXDXDXDXDXDXDXDXDXDXDXDXDXDXDXu.lX:XCXmXhX% DXDXDXDXDXDXDXDXDXDXDXDXDXDXDX",
"DXDXDXDXDXDXDXDXDXDXDXDXDXDX= -XG.R.G.7XM.O.q DX# c K.N.V.].V _ } { +.Y.u.w DXDXDXDXDXDXDXDXDXDXDXDXDXDXDXa.VX#X<XsXxXw DXDXDXDXDXDXDXDXDXDXDXDXDXDXDX",
"DXDXDXDXDXDXDXDXDXDXDXDXDXDX& .X{.G./.9XB.O.R DX* <.C.M.N.iX; V @.#.#.Y.z.9 DXDXDXDXDXDXDXDXDXDXDXDXDXDXDXq.iX$X,X{.<.o DXDXDXDXDXDXDXDXDXDXDXDXDXDXDX",
"DXDXDXDXDXDXDXDXDXDXDXDXDXDX# f.T.V.Q.+XV.O.R DX* p.C.M.L.tX: ; k #.+.7.t.8 DXDXDXDXDXDXDXDXDXDXDXDXDXDXDXq.iX:X=X%X:.& DXDXDXDXDXDXDXDXDXDXDXDXDXDXDX",
"DXDXDXDXDXDXDXDXDXDXDXDXDXDXX X.V.N.Q.@XH.$.g.DX$ z.C.M.L.}.a DX= @.+.2.Y * DXDXDXDXDXDXDXDXDXDXDXDXDXDX% u.iX:X*X-XE < DXDXDXDXDXDXDXDXDXDXDXDXDXDXDX",
"DXDXDXDXDXDXDXDXDXDXDXDXDXDXDXE K.M.).`.R.E.>.& $ z.A.n L.tX* DX2 ` B.` 0.DXDXDXDXDXDXDXDXDXDXDXDXDXDXDX& u.tX,X*X[.U % DXDXDXDXDXDXDXDXDXDXDXDXDXDXDX",
"DXDXDXDXDXDXDXDXDXDXDXDXDXDXDX,.T.m.3X/.R.S.J.y $ z.E.n L.tX# DXK ` A.~ u.o DXDXDXDXDXDXDXDXDXDXDXDXDXDX> g.iX:X*XE.G DXDXDXDXDXDXDXDXDXDXDXDXDXDXDXDX",
"DXDXDXDXDXDXDXDXDXDXDXDXDXDX. U T.m.@XU.R.R.}.- x s.f.M.V.XXDXDXI >.A.v t.DXDXDXDXDXDXDXDXDXDXDXDXDXDXDX$ g.&X%X).[.d X DXDXDXDXDXDXDXDXDXDXDXDXDXDXDX",
"DXDXDXDXDXDXDXDXDXDXDXDXDXDXDXN ].m.OXD./.K.iX= t.=.4.S.B.i.$ # T 2.A.~ t.DXDXDXDXDXDXDXDXDXDXDXDXDXDXDX$ k.%X{.{.%X; DXDXDXDXDXDXDXDXDXDXDXDXDXDXDXDX",
"DXDXDXDXDXDXDXDXDXDXDXDXDXDX+ U Y.N.OXD./.K.'.i z ;.2.S.+.i.DXa &.#.C.;.0.X DXDXDXDXDXDXDXDXDXDXDXDXDXDX$ |.{.!.{.{.; DXDXDXDXDXDXDXDXDXDXDXDXDXDXDXDX",
"DXDXDXDXDXDXDXDXDXDXDXDXDXDXDX,.K.K.OXD.G.K._ D p s.` +.[ f.# =.` | } Y.c DXDXDXDXDXDXDXDXDXDXDXDXDXDXDX> |.d.{.{.'.2 DXDXDXDXDXDXDXDXDXDXDXDXDXDXDXDX",
"DXDXDXDXDXDXDXDXDXDXDXDXDXDXX S T.m.].Z.N.@.X.u c ;.` %.+.8.u =./ ] C.p.x O DXDXDXDXDXDXDXDXDXDXDXDXDXDX0 k.d.*XQ.7.DXDXDXDXDXDXDXDXDXDXDXDXDXDXDXDXDX",
"DXDXDXDXDXDXDXDXDXDXDXDXDXDXDX2 }.] K.Z.M./ 1.DXi.*.` @.E.@.) ~ / b A.;.P * DXDXDXDXDXDXDXDXDXDXDXDXDXDXx h.d.*XR.5.DXDXDXDXDXDXDXDXDXDXDXDXDXDXDXDXDX",
"DXDXDXDXDXDXDXDXDXDXDXDXDXDXX : ].[ ].{ ].X.J # p.=.*.} #.} | } / v [ ) 0.* DXDXDXDXDXDXDXDXDXDXDXDXDXDX6 [.$.).R.<.DXDXDXDXDXDXDXDXDXDXDXDXDXDXDXDXDX",
"DXDXDXDXDXDXDXDXDXDXDXDXDXDXDXDXW.{ ].[ -XX.J $ :.&.*.} / { C.#.@.^ b _ w.DXDXDXDXDXDXDXDXDXDXDXDXDXDXDX4 |.%.OXH.1.DXDXDXDXDXDXDXDXDXDXDXDXDXDXDXDXDX",
"DXDXDXDXDXDXDXDXDXDXDXDXDXDXDX$ W.A.J.[ #XV J : 5.` ~ ) | | [ ] 3.[ ^ <.9.o DXDXDXDXDXDXDXDXDXDXDXDXDXDXF j.@.=XV.>.DXDXDXDXDXDXDXDXDXDXDXDXDXDXDXDXDX",
"DXDXDXDXDXDXDXDXDXDXDXDXDXDXDXDX!.J.3.} }.i J : 7.` l ) 3.} / j 3.{ ] 8.6 DXDXDXDXDXDXDXDXDXDXDXDXDXDXDXW 1.| ;XB.E DXDXDXDXDXDXDXDXDXDXDXDXDXDXDXDXDX",
"DXDXDXDXDXDXDXDXDXDXDXDXDXDXDXo $.A.3.| ].l X.- i.v ) v  .) ' j v C.v >.Y DXDXDXDXDXDXDXDXDXDXDXDXDXDXDXW 8.| OX+.F DXDXDXDXDXDXDXDXDXDXDXDXDXDXDXDXDX",
"DXDXDXDXDXDXDXDXDXDXDXDXDXDXDXDX/ %.4.| }.} >.y K.b 3.) v C C k p J.b ` u.DXDXDXDXDXDXDXDXDXDXDXDXDXDXDXW '.| K.d.m DXDXDXDXDXDXDXDXDXDXDXDXDXDXDXDXDX",
"DXDXDXDXDXDXDXDXDXDXDXDXDXDXDXDX/ %.4.} }.l >.i ;.v ) ;.v j a &.p K.j *.q.DXDXDXDXDXDXDXDXDXDXDXDXDXDXDXW E.C.A.4.M DXDXDXDXDXDXDXDXDXDXDXDXDXDXDXDXDX",
"DXDXDXDXDXDXDXDXDXDXDXDXDXDXDXDX:.%.d.` }.p 2.k 2.) j 5.( j = 6.z | l p.9.X DXDXDXDXDXDXDXDXDXDXDXDXDXo 1.$.S.A.>.q DXDXDXDXDXDXDXDXDXDXDXDXDXDXDXDXDX",
"DXDXDXDXDXDXDXDXDXDXDXDXDXDXDXDXV O.O.@.'.l ~ C *.~ ( 5.j D - 5.( v ^ p.0.DXDXDXDXDXDXDXDXDXDXDXDXDXDXDXH E.B.E.X.6 DXDXDXDXDXDXDXDXDXDXDXDXDXDXDXDXDX",
"DXDXDXDXDXDXDXDXDXDXDXDXDXDXDXDX; X.A @.6.*.k ~ &.k <.<.: <.- =.=.j } =.e.DXDXDXDXDXDXDXDXDXDXDXDXDXDXo A !.+.W.G < DXDXDXDXDXDXDXDXDXDXDXDXDXDXDXDXDX",
"DXDXDXDXDXDXDXDXDXDXDXDXDXDXDXDXw.f...o.5.` k C >.V V U s <.- &.=.( v T e.  DXDXDXDXDXDXDXDXDXDXDXDXDXDX..E.+.E.&.& DXDXDXDXDXDXDXDXDXDXDXDXDXDXDXDXDX",
"DXDXDXDXDXDXDXDXDXDXDXDXDXDXDXDX1 m o.8.2.A f C >.V : m U &.- &.D >.s S 0.DXDXDXDXDXDXDXDXDXDXDXDXDXDXo o.+.A.$.,.o DXDXDXDXDXDXDXDXDXDXDXDXDXDXDXDXDX",
"DXDXDXDXDXDXDXDXDXDXDXDXDXDXDXDXN H C 2.8.C 2 :.&.u S : U &.: &.k >.f T e.X DXDXDXDXDXDXDXDXDXDXDXDXDX% o.+.B.#.,.o DXDXDXDXDXDXDXDXDXDXDXDXDXDXDXDXDX",
"DXDXDXDXDXDXDXDXDXDXDXDXDXDXDXDX& S f *.J.C & <.D = p.= S &.a C s o.Z ,.a.DXDXDXDXDXDXDXDXDXDXDXDXDXDX5 >.C.+.@.,.DXDXDXDXDXDXDXDXDXDXDXDXDXDXDXDXDXDX",
"DXDXDXDXDXDXDXDXDXDXDXDXDXDXDXDX$ ,.k 2.7.C 2 W a a S a I S a _ :.A a f a.DXDXDXDXDXDXDXDXDXDXDXDXDXDXq >.#.#.2.Q o DXDXDXDXDXDXDXDXDXDXDXDXDXDXDXDXDX",
"DXDXDXDXDXDXDXDXDXDXDXDXDXDXDXDX# k.U >.2.A m N : I ; ,.S V k V C C ..S a.DXDXDXDXDXDXDXDXDXDXDXDXDXDX3 _ @.#.*.q.DXDXDXDXDXDXDXDXDXDXDXDXDXDXDXDXDXDX",
"DXDXDXDXDXDXDXDXDXDXDXDXDXDXDXDX$ h $ A '.p.2 N 2 N ; Q f G m : $ k C S e.DXDXDXDXDXDXDXDXDXDXDXDXDXDX3 :.@.} <.w.DXDXDXDXDXDXDXDXDXDXDXDXDXDXDXDXDXDX",
"DXDXDXDXDXDXDXDXDXDXDXDXDXDXDXDX# 0.1.>._ _ = N 4 4 2 F : G f G J [.i S 9.+ DXDXDXDXDXDXDXDXDXDXDXDXDX5 E O.@.,.0.DXDXDXDXDXDXDXDXDXDXDXDXDXDXDXDXDXDX",
"DXDXDXDXDXDXDXDXDXDXDXDXDXDXDXDXo w.Z X._ :.= 4 6 4 2 N 2 E ; m J tX2.,.e.DXDXDXDXDXDXDXDXDXDXDXDXDX  5 X.@.o.&.9.. DXDXDXDXDXDXDXDXDXDXDXDXDXDXDXDXDX",
"DXDXDXDXDXDXDXDXDXDXDXDXDXDXDXDXo g.m A D &.: ; 4 4 2 4 2 :.$ E |.fX*.h e.DXDXDXDXDXDXDXDXDXDXDXDXDXDX5 :.@.` T > DXDXDXDXDXDXDXDXDXDXDXDXDXDXDXDXDXDX",
"DXDXDXDXDXDXDXDXDXDXDXDXDXDXDXDXDXM Z X._ :.: N 1 4 M 2 d U 2 Z J |.k P r.DXDXDXDXDXDXDXDXDXDXDXDXDXDXw o.@./ S 0 DXDXDXDXDXDXDXDXDXDXDXDXDXDXDXDXDXDX",
"DXDXDXDXDXDXDXDXDXDXDXDXDXDXDXDXo # W 1._ :.; Q # 4 I ; B f F d ; ,.- g e DXDXDXDXDXDXDXDXDXDXDXDXDXDXR X.%./ S 0 DXDXDXDXDXDXDXDXDXDXDXDXDXDXDXDXDXDX",
"DXDXDXDXDXDXDXDXDXDXDXDXDXDXDXDXDX, 1.X.C &.2 N & 1 6 4 I N E 2 d a c 1 e DXDXDXDXDXDXDXDXDXDXDXDXDXDXw.A o./ N 8 DXDXDXDXDXDXDXDXDXDXDXDXDXDXDXDXDXDX",
"DXDXDXDXDXDXDXDXDXDXDXDXDXDXDXDXDX6 W X.k U a 1 4 1 1 ; & ; ,.; :.$ y.& r.DXDXDXDXDXDXDXDXDXDXDXDXDXDXy.V / o.h * DXDXDXDXDXDXDXDXDXDXDXDXDXDXDXDXDXDX",
"DXDXDXDXDXDXDXDXDXDXDXDXDXDXDXDX  3 Z Z k &.4 L 1 % q g q.g Q ; F ; L 1 r.  DXDXDXDXDXDXDXDXDXDXDXDXo L V o.X.6 DXDXDXDXDXDXDXDXDXDXDXDXDXDXDXDXDXDXDX",
"DXDXDXDXDXDXDXDXDXDXDXDXDXDXDXDXDX, q m k :.2 g., & R # & $ Q a f d 1 w e DXDXDXDXDXDXDXDXDXDXDXDXDX% 2 F o.o.7 DXDXDXDXDXDXDXDXDXDXDXDXDXDXDXDXDXDXDX",
"DXDXDXDXDXDXDXDXDXDXDXDXDXDXDXDX  , B m a ,.; q.6 1 g & 2 2 ! : I & 4 5 P DXDXDXDXDXDXDXDXDXDXDXDXDX& 2 G :.>.3 DXDXDXDXDXDXDXDXDXDXDXDXDXDXDXDXDXDXDX",
"DXDXDXDXDXDXDXDXDXDXDXDXDXDXDXDXDX, B B 2 y.$ L q 6 1 4 4 N E $ ,.# K & P DXDXDXDXDXDXDXDXDXDXDXDXDX% a T *.o.3 DXDXDXDXDXDXDXDXDXDXDXDXDXDXDXDXDXDXDX",
"DXDXDXDXDXDXDXDXDXDXDXDXDXDXDXDXDXDXB q a y.$ L , g L M 2 2 I 2 S & K 3 e DXDXDXDXDXDXDXDXDXDXDXDXDX# Y S *.o.6 DXDXDXDXDXDXDXDXDXDXDXDXDXDXDXDXDXDXDX",
"DXDXDXDXDXDXDXDXDXDXDXDXDXDXDXDXDX@ B 3 M u.# L o M y.K = $ Y N 4 d M 6 5 DXDXDXDXDXDXDXDXDXDXDXDXDXDXw.s T &.q DXDXDXDXDXDXDXDXDXDXDXDXDXDXDXDXDXDXDX",
"DXDXDXDXDXDXDXDXDXDXDXDXDXDXDXDXDXDXq 3 K w.DX< DX9 K w.g.2 $ ; 2 M 6 6 < DXDXDXDXDXDXDXDXDXDXDXDXDXX 9.7 h a % DXDXDXDXDXDXDXDXDXDXDXDXDXDXDXDXDXDXDX",
"DXDXDXDXDXDXDXDXDXDXDXDXDXDXDXDXDX+ r , e e.DXDXX r % 1 4 Y q.N 1 1 3 5 < DXDXDXDXDXDXDXDXDXDXDXDXDXDXe < & DXDXDXDXDXDXDXDXDXDXDXDXDXDXDXDXDXDXDXDXDX",
"DXDXDXDXDXDXDXDXDXDXDXDXDXDXDXDXDXDX+ + < 8 DXDXDXDXX % 6 R Q W d & q , 8 DXDXDXDXDXDXDXDXDXDXDXDXDXDXDXDXDXDXDXDXDXDXDXDXDXDXDXDXDXDXDXDXDXDXDXDXDXDX",
"DXDXDXDXDXDXDXDXDXDXDXDXDXDXDXDXDXDXDXDXDXDXDXDXDXDXDXO & 1 1 ! B & q O e DXDXDXDXDXDXDXDXDXDXDXDXDXDXDXDXDXDXDXDXDXDXDXDXDXDXDXDXDXDXDXDXDXDXDXDXDXDX",
"DXDXDXDXDXDXDXDXDXDXDXDXDXDXDXDXDXDXDXDXDXDXDXDXDXDXDXDX9 1 # K ! w.K 5 e DXDXDXDXDXDXDXDXDXDXDXDXDXDXDXDXDXDXDXDXDXDXDXDXDXDXDXDXDXDXDXDXDXDXDXDXDXDX",
"DXDXDXDXDXDXDXDXDXDXDXDXDXDXDXDXDXDXDXDXDXDXDXDXDXDXDXDXDX5 R g = l.P 9.e DXDXDXDXDXDXDXDXDXDXDXDXDXDXDXDXDXDXDXDXDXDXDXDXDXDXDXDXDXDXDXDXDXDXDXDXDXDX",
"DXDXDXDXDXDXDXDXDXDXDXDXDXDXDXDXDXDXDXDXDXDXDXDXDXDXDXDXDXO 8 & # g P 0 e DXDXDXDXDXDXDXDXDXDXDXDXDXDXDXDXDXDXDXDXDXDXDXDXDXDXDXDXDXDXDXDXDXDXDXDXDXDX",
"DXDXDXDXDXDXDXDXDXDXDXDXDXDXDXDXDXDXDXDXDXDXDXDXDXDXDXDXDXDXDX> x # 0 $ 9.DXDXDXDXDXDXDXDXDXDXDXDXDXDXDXDXDXDXDXDXDXDXDXDXDXDXDXDXDXDXDXDXDXDXDXDXDXDX",
"DXDXDXDXDXDXDXDXDXDXDXDXDXDXDXDXDXDXDXDXDXDXDXDXDXDXDXDXDXDXDX* 9.< 7 < r DXDXDXDXDXDXDXDXDXDXDXDXDXDXDXDXDXDXDXDXDXDXDXDXDXDXDXDXDXDXDXDXDXDXDXDXDXDX",
"DXDXDXDXDXDXDXDXDXDXDXDXDXDXDXDXDXDXDXDXDXDXDXDXDXDXDXDXDXDXDXDXDXO < 8 9 DXDXDXDXDXDXDXDXDXDXDXDXDXDXDXDXDXDXDXDXDXDXDXDXDXDXDXDXDXDXDXDXDXDXDXDXDXDX",
"DXDXDXDXDXDXDXDXDXDXDXDXDXDXDXDXDXDXDXDXDXDXDXDXDXDXDXDXDXDXDXDXDX@ r 8 8 DXDXDXDXDXDXDXDXDXDXDXDXDXDXDXDXDXDXDXDXDXDXDXDXDXDXDXDXDXDXDXDXDXDXDXDXDXDX",
"DXDXDXDXDXDXDXDXDXDXDXDXDXDXDXDXDXDXDXDXDXDXDXDXDXDXDXDXDXDXDXDXDXDXDXDX@ DXDXDXDXDXDXDXDXDXDXDXDXDXDXDXDXDXDXDXDXDXDXDXDXDXDXDXDXDXDXDXDXDXDXDXDXDXDX",
"DXDXDXDXDXDXDXDXDXDXDXDXDXDXDXDXDXDXDXDXDXDXDXDXDXDXDXDXDXDXDXDXDXDXDXDXDXDXDXDXDXDXDXDXDXDXDXDXDXDXDXDXDXDXDXDXDXDXDXDXDXDXDXDXDXDXDXDXDXDXDXDXDXDXDX",
"DXDXDXDXDXDXDXDXDXDXDXDXDXDXDXDXDXDXDXDXDXDXDXDXDXDXDXDXDXDXDXDXDXDXDXDXDXDXDXDXDXDXDXDXDXDXDXDXDXDXDXDXDXDXDXDXDXDXDXDXDXDXDXDXDXDXDXDXDXDXDXDXDXDXDX"
};
