/* XPM */
static char *door_51754906456[] = {
/* columns rows colors chars-per-pixel */
"75 75 244 2 ",
"   c #090303",
".  c #0D0E00",
"X  c #140300",
"o  c #1C0400",
"O  c #150900",
"+  c #1C0C02",
"@  c #1B0B08",
"#  c #1E1108",
"$  c #240401",
"%  c #2B0400",
"&  c #230B00",
"*  c #2C0D00",
"=  c #2B0E0B",
"-  c #330400",
";  c #340C01",
":  c #3A0E00",
">  c #390607",
",  c #241302",
"<  c #2C1403",
"1  c #20110B",
"2  c #2B160A",
"3  c #2C190B",
"4  c #2D1900",
"5  c #331401",
"6  c #3D1300",
"7  c #331A04",
"8  c #3B1C04",
"9  c #341C0C",
"0  c #3B1C0B",
"q  c #2D1A16",
"w  c #331D13",
"e  c #391D17",
"r  c #162207",
"t  c #3C2105",
"y  c #3C2906",
"u  c #3B220B",
"i  c #362309",
"p  c #242A16",
"a  c #3B2413",
"s  c #352318",
"d  c #3E2A1B",
"f  c #372316",
"g  c #2B2D15",
"h  c #4B0901",
"j  c #431600",
"k  c #441C03",
"l  c #4C1D02",
"z  c #431D0C",
"x  c #4A1A07",
"c  c #541E05",
"v  c #701C00",
"b  c #442204",
"n  c #492304",
"m  c #442906",
"M  c #42240E",
"N  c #4B240C",
"B  c #442A0C",
"V  c #4C2A0D",
"C  c #4F2F00",
"Z  c #542504",
"A  c #52250D",
"S  c #54290B",
"D  c #5B2B0C",
"F  c #5D2605",
"G  c #4C310E",
"H  c #5D310C",
"J  c #573109",
"K  c #442613",
"L  c #422A15",
"P  c #4B2B13",
"I  c #462C1B",
"U  c #532C14",
"Y  c #5C2C13",
"T  c #532F1D",
"R  c #5A2B1B",
"E  c #572611",
"W  c #473319",
"Q  c #543315",
"!  c #5C3313",
"~  c #5B341A",
"^  c #573718",
"/  c #662C03",
"(  c #6C2D04",
")  c #622C0B",
"_  c #6A2E08",
"`  c #6C2600",
"'  c #732902",
"]  c #64330C",
"[  c #6B330B",
"{  c #6A3106",
"}  c #73350A",
"|  c #7B350C",
" . c #7D390D",
".. c #773607",
"X. c #652B13",
"o. c #643313",
"O. c #6A3413",
"+. c #64341A",
"@. c #633A1C",
"#. c #693A18",
"$. c #733512",
"%. c #7A3515",
"&. c #7D3B14",
"*. c #76381B",
"=. c #482B24",
"-. c #4D3324",
";. c #583726",
":. c #4A3938",
">. c #653825",
",. c #743A27",
"<. c #7A421C",
"1. c #784119",
"2. c #6B441B",
"3. c #4F4A2E",
"4. c #68462A",
"5. c #794726",
"6. c #674833",
"7. c #794C32",
"8. c #785244",
"9. c #7A644E",
"0. c #851911",
"q. c #833204",
"w. c #8C3401",
"e. c #823A0A",
"r. c #8A3A0C",
"t. c #853709",
"y. c #923B03",
"u. c #9A3D05",
"i. c #993707",
"p. c #843D14",
"a. c #893A12",
"s. c #883717",
"d. c #93371A",
"f. c #A23C08",
"g. c #A53D14",
"h. c #A02C1D",
"j. c #9A2D23",
"k. c #9D3026",
"l. c #873323",
"z. c #A3352B",
"x. c #CA3E0A",
"c. c #CC3D1E",
"v. c #8B4118",
"b. c #854619",
"n. c #944115",
"m. c #954718",
"M. c #9A5319",
"N. c #8F4909",
"B. c #BA4804",
"V. c #A34719",
"C. c #BE4A14",
"Z. c #A65719",
"A. c #BA5619",
"S. c #AB4F0A",
"D. c #BA620C",
"F. c #A46717",
"G. c #B7641B",
"H. c #834A24",
"J. c #8A4A27",
"K. c #89502A",
"L. c #9B542A",
"P. c #945727",
"I. c #874E32",
"U. c #974A39",
"Y. c #8B5737",
"T. c #995A35",
"R. c #9C4E2F",
"E. c #A95B22",
"W. c #AC5B2C",
"Q. c #A65729",
"!. c #B45D2C",
"~. c #B65924",
"^. c #A35B34",
"/. c #A85B36",
"(. c #BC5A32",
"). c #8C6629",
"_. c #956B2D",
"`. c #9A6A2D",
"'. c #9B662A",
"]. c #9C6934",
"[. c #94623D",
"{. c #9A633D",
"}. c #9B6738",
"|. c #926A3D",
" X c #AA6529",
".X c #AA633B",
"XX c #A66637",
"oX c #BB6632",
"OX c #B46934",
"+X c #B3653E",
"@X c #B86739",
"#X c #BC733C",
"$X c #B47337",
"%X c #B46D2D",
"&X c #C95C17",
"*X c #C95413",
"=X c #C56C1C",
"-X c #C65B27",
";X c #C95428",
":X c #E7562F",
">X c #C8662A",
",X c #D5672A",
"<X c #C8762E",
"1X c #CC6334",
"2X c #CB6B37",
"3X c #C6743A",
"4X c #D36F36",
"5X c #E37128",
"6X c #955544",
"7X c #815544",
"8X c #9C6843",
"9X c #8A6B55",
"0X c #986C56",
"qX c #8F6955",
"wX c #A56C44",
"eX c #A56946",
"rX c #B76946",
"tX c #BD7344",
"yX c #BB764B",
"uX c #A16856",
"iX c #A87858",
"pX c #BA7751",
"aX c #B27F63",
"sX c #C56B47",
"dX c #C47A49",
"fX c #D3764F",
"gX c #CC823E",
"hX c #A98141",
"jX c #B08062",
"kX c #CC8349",
"lX c #D28A49",
"zX c #D39548",
"xX c #CC8758",
"cX c #DD8C56",
"vX c #D48857",
"bX c #D9955A",
"nX c #CF9450",
"mX c #E28853",
"MX c #EB9856",
"NX c #EBAC5C",
"BX c #E79768",
"VX c #ECA76E",
"CX c #D29270",
"ZX c None",
/* pixels */
"ZXZXZXZXZXZXZXZXZXZXZXZXZXZXZXZXZXZXZXZXZXZXZXZXZXZXZXZXZXZXZXZXZXZXZXZXZXZXZXZXZXZXZXZXZXZXZXZXZXZXZXZXZXZXZXZXZXZXZXZXZXZXZXZXZXZXZXZXZXZXZXZXZXZXZX",
"ZXZXZXZXZXZXZXZXZXZXZXZXZXZXZXZXZXZXZXZXZXZXZXZXZXZXZXZXZXZXZXZXZXZXZXZXZXZXZXZXZXZXZXZXZXZXZXZXZXZXZXZXZXZXZXZXZXZXZXZXZXZXZXZXZXZXZXZXZXZXZXZXZXZXZX",
"ZXZXZXZXZXZXZXZXZXZXZXZXZXZX; R x E Y Y X.l O.E c E +.n ~ N 6 N ;.; P : E A Y h X.x ) 8XH..XH.T.wX6XI.6XuXeX1.XX'.|.|.9.ZXZXZXZXZXZXZXZXZXZXZXZXZXZXZX",
"ZXZXZXZXZXZXZXZXZXZXZXZXZXZXY.rXR.+XdX2X!.W.W./.rX/.yXa.L.| T.v.b.{ eXJ.rX.X.X^.@X^.^.#XQ.@XL.rXyX.XP.XXyXnXtXxXyXvXwX0XZXZXZXZXZXZXZXZXZXZXZXZXZXZXZX",
"ZXZXZXZXZXZXZXZXZXZXZXZXZXZXv.(.u.~.4X&Xf.,XC.;X1Xf.2Xf.2Xw.oXZ.V.e. Xw.;X~.Q.E. X X X%X!.sXW.+XsX/.'.%XgXlXkXsX.XBXsXuXZXZXZXZXZXZXZXZXZXZXZXZXZXZXZX",
"ZXZXZXZXZXZXZXZXZXZXZXZXZXZXr.fX;X;X&X5X*X5XB.&XC.f.&Xi.-XS.-XV.y.y.Z.Z.>X XM.A.,X<X%X$X%XsX@X`.).].$XkXVXvXcX#XpXBXrX7.ZXZXZXZXZXZXZXZXZXZXZXZXZXZXZX",
"ZXZXZXZXZXZXZXZXZXZXZXZXZXZXw.1XC.*XB.,X=X=Xu.D.D.D.<Xw.w.i.g.g.i.y.N.N.F.F.`.`._._.).wX_.`.].`.].}.wXwXCX+XvX#XnXbX/.U ZXZXZXZXZXZXZXZXZXZXZXZXZXZXZX",
"ZXZXZXZXZXZXZXZXZXZXZXZXZXZXv.<X*X*X*X:Xc.*X1X4X-Xg.(.s.^.^.R.Y.I.J.s.d.k.h.k.g.k.k.k.j.0.l.U.U.z.6X9X9X0XY.vXlXzXvX/.P ZXZXZXZXZXZXZXZXZXZXZXZXZXZXZX",
"ZXZXZXZXZXZXZXZXZXZXZXZXZXZXP.%XS.<XZ.|.4., 8 % * $ K $ % % % o ZXZXZXZXZXZXZXZXZXZXZXZXZXZXZXZXZXZXZXZXZX$ XX#XlXcXfX8.ZXZXZXZXZXZXZXZXZXZXZXZXZXZXZX",
"ZXZXZXZXZXZXZXZXZXZXZXZXZXZXM.,X*X;Xw.s.5., ZXZXZXZXZXZXZXZXZXZXZXZXZXZXZXZXZXZXZXZXZXZXZXZXZXZXZXZXZXZXZXZX}.bXNXlXrX9XZXZXZXZXZXZXZXZXZXZXZXZXZXZXZX",
"ZXZXZXZXZXZXZXZXZXZXZXZXZXZXm.>Xf.;Xg.~ 3.. ZXZXZXZXZXZXZXZXZXZXZXZXZXZXZXZXZXZXZXZXZXZXZXZXZXZXZXZXZXZXZXo [.bXzX%X8X9XZXZXZXZXZXZXZXZXZXZXZXZXZXZXZX",
"ZXZXZXZXZXZXZXZXZXZXZXZXZXZXr.4X~.2Xl.R :.ZXZXZXZXZXZXZXZXZXZXZXZXZXZXZXZXZXZXZXZXZXZXZXZXZXZXZXZXZXZXZXZX* |.BXMXbX[.6.ZXZXZXZXZXZXZXZXZXZXZXZXZXZXZX",
"ZXZXZXZXZXZXZXZXZXZXZXZXZXZXe.oXn.W.s.>.:.ZXZXZXZXZXZXZXZXZXZXZXZXZXZXZXZXZXZXZXZXZXZXZXZXZXZXZXZXZXZXZXZXu 8XvX<XBX[.I ZXZXZXZXZXZXZXZXZXZXZXZXZXZXZX",
"ZXZXZXZXZXZXZXZXZXZXZXZXZXZXO.P...1.O.7.;.@ ZXZXZXZXZXZXZXZXZXZXZXZXZXZXZXZXZXZXZXZXZXZXZXZXZXZXZXZXZXZXZX9 8XbXMXBX8X0 ZXZXZXZXZXZXZXZXZXZXZXZXZXZXZX",
"ZXZXZXZXZXZXZXZXZXZXZXZXZXZXE 2.C J D 0X;.e ZXZXZXZXZXZXZXZXZXZXZXZXZXZXZXZXZXZXZXZXZXZXZXZXZXZXZXZXZXZXZX9 yXvXmXvXiX7 ZXZXZXZXZXZXZXZXZXZXZXZXZXZXZX",
"ZXZXZXZXZXZXZXZXZXZXZXZXZXZX-.@.J D ) eX*.Q ZXZXZXZXZXZXZXZXZXZXZXZXZXZXZXZXZXZXZXZXZXZXZXZXZXZXZXZXZXZX  8 pXdX2XdXiX= ZXZXZXZXZXZXZXZXZXZXZXZXZXZXZX",
"ZXZXZXZXZXZXZXZXZXZXZXZXZXZX% z @.#./ ^.b.@.ZXZXZXZXZXZXZXZXZXZXZXZXZXZXZXZXZXZXZXZXZXZXZXZXZXZXZXZXZXZXZXt dXvXmXxXiX* ZXZXZXZXZXZXZXZXZXZXZXZXZXZXZX",
"ZXZXZXZXZXZXZXZXZXZXZXZXZXZX$ z @.O.{ rXQ.@.ZXZXZXZXZXZXZXZXZXZXZXZXZXZXZXZXZXZXZXZXZXZXZXZXZXZXZXZXZXZXZXQ xXOXoXyXaX% ZXZXZXZXZXZXZXZXZXZXZXZXZXZXZX",
"ZXZXZXZXZXZXZXZXZXZXZXZXZXZX* K ~ O.[ ^.p.@.W ZXZXZXZXZXZXZXZXZXZXZXZXZXZXZXZXZXZXZXZXZXZXZXZXZXZXZXZXZXZX>.yX#XBXxXiX$ ZXZXZXZXZXZXZXZXZXZXZXZXZXZXZX",
"ZXZXZXZXZXZXZXZXZXZXZXZXZXZX+ b ! <._ J.b.o.i ZXZXZXZXZXZXZXZXZXZXZXZXZXZXZXZXZXZXZXZXZXZXZXZXZXZXZXZXZXZX6.vXW.oXyXaXe ZXZXZXZXZXZXZXZXZXZXZXZXZXZXZX",
"ZXZXZXZXZXZXZXZXZXZXZXZXZXZX-.^ D K./  .&.D 4 O ZXZXZXZXZXZXZXZXZXZXZXZXZXZXZXZXZXZXZXZXZXZXZXZXZXZXZXZXZX~ OX XtXL.>.$ ZXZXZXZXZXZXZXZXZXZXZXZXZXZXZX",
"ZXZXZXZXZXZXZXZXZXZXZXZXZXO ;.U j K.&.( | D u ZXZXZXZXZXZXZXZXZXZXZXZXZXZXZXZXZXZXZXZXZXZXZXZXZXZXZXZXZXZX~ XX@XOX^.o.* ZXZXZXZXZXZXZXZXZXZXZXZXZXZXZX",
"ZXZXZXZXZXZXZXZXZXZXZXZXZXZX;.+.] }.v.` ( o.^ X ZXZXZXZXZXZXZXZXZXZXZXZXZXZXZXZXZXZXZXZXZXZXZXZXZXZXZXZX@ >.XX$XOXXX! 2 ZXZXZXZXZXZXZXZXZXZXZXZXZXZXZX",
"ZXZXZXZXZXZXZXZXZXZXZXZXZXO >.l ) P.L.t.( O.U & ZXZXZXZXZXZXZXZXZXZXZXZXZXZXZXZXZXZXZXZXZXZXZXZXZXZXZXZX$ 4.].$XW.Y.Q & ZXZXZXZXZXZXZXZXZXZXZXZXZXZXZX",
"ZXZXZXZXZXZXZXZXZXZXZXZXZXZXR > ] { t...( 1.N < ZXZXZXZXZXZXZXZXZXZXZXZXZXZXZXZXZXZXZXZXZXZXZXZXZXZXZXZX$ 7._.OXW.b.G ZXZXZXZXZXZXZXZXZXZXZXZXZXZXZXZX",
"ZXZXZXZXZXZXZXZXZXZXZXZXZXZXz j ]  .a.e.` 5.Y 9 ZXZXZXZXZXZXZXZXZXZXZXZXZXZXZXZXZXZXZXZXZXZXZXZXZXZXZXZX$ 7.'.E.W.K.k X ZXZXZXZXZXZXZXZXZXZXZXZXZXZXZX",
"ZXZXZXZXZXZXZXZXZXZXZXZXZXZX$ k ) b.m.&./ 5.>.e ZXZXZXZXZXZXZXZXZXZXZXZXZXZXZXZXZXZXZXZXZXZXZXZXZXZXZXZX$ ,.P.m.Q.T.5 ZXZXZXZXZXZXZXZXZXZXZXZXZXZXZXZX",
"ZXZXZXZXZXZXZXZXZXZXZXZXZXZXX k ] { p.` _ O.E 2 ZXZXZXZXZXZXZXZXZXZXZXZXZXZXZXZXZXZXZXZXZXZXZXZXZXZXZXZX$ Y.'.M.v.H.5 ZXZXZXZXZXZXZXZXZXZXZXZXZXZXZXZX",
"ZXZXZXZXZXZXZXZXZXZXZXZXZXZXZX5 ] } ^.( [ o.>.s ZXZXZXZXZXZXZXZXZXZXZXZXZXZXZXZXZXZXZXZXZXZXZXZXZXZXZXZX$ Y...E./.K.5 ZXZXZXZXZXZXZXZXZXZXZXZXZXZXZXZX",
"ZXZXZXZXZXZXZXZXZXZXZXZXZXZXZX0 F { J.$.[ Y ZXX ZXZXZXZXZXZXZXZXZXZXZXZXZXZXZXZXZXZXZXZXZXZXZXZXZXZXZXZXI Y.e.E.M.<.ZXZXZXZXZXZXZXZXZXZXZXZXZXZXZXZXZX",
"ZXZXZXZXZXZXZXZXZXZXZXZXZXZXZXa k _ %.p.[ >.ZXZXZXZXZXZXZXZXZXZXZXZXZXZXZXZXZXZXZXZXZXZXZXZXZXZXZXZXZXZX5 #.p.!.i.#.ZXZXZXZXZXZXZXZXZXZXZXZXZXZXZXZXZX",
"ZXZXZXZXZXZXZXZXZXZXZXZXZXZXZX9 b [ %.&.[ P ZXZXZXZXZXZXZXZXZXZXZXZXZXZXZXZXZXZXZXZXZXZXZXZXZXZXZXZXZXZXP Y. .~.u.#.ZXZXZXZXZXZXZXZXZXZXZXZXZXZXZXZXZX",
"ZXZXZXZXZXZXZXZXZXZXZXZXZXZXZX, V X.%.%.[ 7 ZXZXZXZXZXZXZXZXZXZXZXZXZXZXZXZXZXZXZXZXZXZXZXZXZXZXZXZXZXZX5 Y. .~.u.#.ZXZXZXZXZXZXZXZXZXZXZXZXZXZXZXZXZX",
"ZXZXZXZXZXZXZXZXZXZXZXZXZXZXZX+ Q ) *.%.[ 5 ZXZXZXZXZXZXZXZXZXZXZXZXZXZXZXZXZXZXZXZXZXZXZXZXZXZXZXZXZXZXm H. .~.w.o.ZXZXZXZXZXZXZXZXZXZXZXZXZXZXZXZXZX",
"ZXZXZXZXZXZXZXZXZXZXZXZXZXZXZXZX^ Z *.O.) < ZXZXZXZXZXZXZXZXZXZXZXZXZXZXZXZXZXZXZXZXZXZXZXZXZXZXZXZXZXZX^ $.s.!...H ZXZXZXZXZXZXZXZXZXZXZXZXZXZXZXZXZX",
"ZXZXZXZXZXZXZXZXZXZXZXZXZXZXZX+ G F *.*.o.B ZXZXZXZXZXZXZXZXZXZXZXZXZXZXZXZXZXZXZXZXZXZXZXZXZXZXZXZXZXZX^ $.v n.t.S ZXZXZXZXZXZXZXZXZXZXZXZXZXZXZXZXZX",
"ZXZXZXZXZXZXZXZXZXZXZXZXZXZXZX, m H O.F ; 7 ZXZXZXZXZXZXZXZXZXZXZXZXZXZXZXZXZXZXZXZXZXZXZXZXZXZXZXZXZXZX! K.s.n.b.n ZXZXZXZXZXZXZXZXZXZXZXZXZXZXZXZXZX",
"ZXZXZXZXZXZXZXZXZXZXZXZXZXZXZXO m D X.X.! u ZXZXZXZXZXZXZXZXZXZXZXZXZXZXZXZXZXZXZXZXZXZXZXZXZXZXZXZXZXZX! b.r.r...V ZXZXZXZXZXZXZXZXZXZXZXZXZXZXZXZXZX",
"ZXZXZXZXZXZXZXZXZXZXZXZXZXZXZXZXm S E A N , ZXZXZXZXZXZXZXZXZXZXZXZXZXZXZXZXZXZXZXZXZXZXZXZXZXZXZXZXZX+ o. .r...F P ZXZXZXZXZXZXZXZXZXZXZXZXZXZXZXZXZX",
"ZXZXZXZXZXZXZXZXZXZXZXZXZXZXZXZXm S c S B i ZXZXZXZXZXZXZXZXZXZXZXZXZXZXZXZXZXZXZXZXZXZXZXZXZXZXZXZXZXZX] b.e.J.2.W ZXZXZXZXZXZXZXZXZXZXZXZXZXZXZXZXZX",
"ZXZXZXZXZXZXZXZXZXZXZXZXZXZXZXX G S l A B W X ZXZXZXZXZXZXZXZXZXZXZXZXZXZXZXZXZXZXZXZXZXZXZXZXZXZXZXZXo ) M.e.b.b , ZXZXZXZXZXZXZXZXZXZXZXZXZXZXZXZXZX",
"ZXZXZXZXZXZXZXZXZXZXZXZXZXZXZXZXQ n Y 5 8 7 ZXZXZXZXZXZXZXZXZXZXZXZXZXZXZXZXZXZXZXZXZXZXZXZXZXZXZXZXZXZX]  .' t.o.& ZXZXZXZXZXZXZXZXZXZXZXZXZXZXZXZXZX",
"ZXZXZXZXZXZXZXZXZXZXZXZXZXZXZXZX^ n o.j 4.i ZXZXZXZXZXZXZXZXZXZXZXZXZXZXZXZXZXZXZXZXZXZXZXZXZXZXZXZXZXo o.t.r.s.*.% ZXZXZXZXZXZXZXZXZXZXZXZXZXZXZXZXZX",
"ZXZXZXZXZXZXZXZXZXZXZXZXZXZXZXZX^ j +.j t a 3 ZXZXZXZXZXZXZXZXZXZXZXZXZXZXZXZXZXZXZXZXZXZXZXZXZXZXZXZX* O.| w.%.+.o ZXZXZXZXZXZXZXZXZXZXZXZXZXZXZXZXZX",
"ZXZXZXZXZXZXZXZXZXZXZXZXZXZXZXZX^ : +.Y P I O ZXZXZXZXZXZXZXZXZXZXZXZXZXZXZXZXZXZXZXZXZXZXZXZXZXZXZXZX9 O.| ..[ Q ZXZXZXZXZXZXZXZXZXZXZXZXZXZXZXZXZXZX",
"ZXZXZXZXZXZXZXZXZXZXZXZXZXZXZXZX^ j Y N * u O ZXZXZXZXZXZXZXZXZXZXZXZXZXZXZXZXZXZXZXZXZXZXZXZXZXZXZXZX9 o.| ..[ T X ZXZXZXZXZXZXZXZXZXZXZXZXZXZXZXZXZX",
"ZXZXZXZXZXZXZXZXZXZXZXZXZXZXZXZXW j U U B L ZXZXZXZXZXZXZXZXZXZXZXZXZXZXZXZXZXZXZXZXZXZXZXZXZXZXZXZXZX7 ] } | O.T ZXZXZXZXZXZXZXZXZXZXZXZXZXZXZXZXZXZX",
"ZXZXZXZXZXZXZXZXZXZXZXZXZXZXZXZXB n Y P 8 d o ZXZXZXZXZXZXZXZXZXZXZXZXZXZXZXZXZXZXZXZXZXZXZXZXZXZXZXZX7 o.[ { +.;.ZXZXZXZXZXZXZXZXZXZXZXZXZXZXZXZXZXZX",
"ZXZXZXZXZXZXZXZXZXZXZXZXZXZXZXZXi m U N 7 L + ZXZXZXZXZXZXZXZXZXZXZXZXZXZXZXZXZXZXZXZXZXZXZXZXZXZXZXZX7 H [ { #.;.ZXZXZXZXZXZXZXZXZXZXZXZXZXZXZXZXZXZX",
"ZXZXZXZXZXZXZXZXZXZXZXZXZXZXZXZX4 V n b 0 L 3 ZXZXZXZXZXZXZXZXZXZXZXZXZXZXZXZXZXZXZXZXZXZXZXZXZXZXZX  7 ] [ { ~ e   ZXZXZXZXZXZXZXZXZXZXZXZXZXZXZXZXZX",
"ZXZXZXZXZXZXZXZXZXZXZXZXZXZXZXZX7 V ; k N M w ZXZXZXZXZXZXZXZXZXZXZXZXZXZXZXZXZXZXZXZXZXZXZXZXZXZXZXZX9 ] [ / Y % ZXZXZXZXZXZXZXZXZXZXZXZXZXZXZXZXZXZX",
"ZXZXZXZXZXZXZXZXZXZXZXZXZXZXZX$ , V S S A 5 f ZXZXZXZXZXZXZXZXZXZXZXZXZXZXZXZXZXZXZXZXZXZXZXZXZXZXZXZXK [ { / >.=.ZXZXZXZXZXZXZXZXZXZXZXZXZXZXZXZXZXZX",
"ZXZXZXZXZXZXZXZXZXZXZXZXZXZX8.6.W b 8 n A ; f # ZXZXZXZXZXZXZXZXZXZXZXZXZXZXZXZXZXZXZXZXZXZXZXZXZXZXZXW [ } / A e ZXZXZXZXZXZXZXZXZXZXZXZXZXZXZXZXZXZX",
"ZXZXZXZXZXZXZXZXZXZXZXZXZXZX-.-.u k N 6 n 8 d 1 ZXZXZXZXZXZXZXZXZXZXZXZXZXZXZXZXZXZXZXZXZXZXZXZXZXZXZX;.) { _ N q ZXZXZXZXZXZXZXZXZXZXZXZXZXZXZXZXZXZX",
"ZXZXZXZXZXZXZXZXZXZXZXZXZXZXO s , 0 U 5 b B f 1 ZXZXZXZXZXZXZXZXZXZXZXZXZXZXZXZXZXZXZXZXZXZXZXZXZXZXZX;.D _ _ z @ ZXZXZXZXZXZXZXZXZXZXZXZXZXZXZXZXZXZX",
"ZXZXZXZXZXZXZXZXZXZXZXZXZXZXZXZXO w z 8 B 7 d # ZXZXZXZXZXZXZXZXZXZXZXZXZXZXZXZXZXZXZXZXZXZXZXZXZXZXo z x ) O.0 ZXZXZXZXZXZXZXZXZXZXZXZXZXZXZXZXZXZXZX",
"ZXZXZXZXZXZXZXZXZXZXZXZXZXZXZXZXZXw ; M W * d # ZXZXZXZXZXZXZXZXZXZXZXZXZXZXZXZXZXZXZXZXZXZXZXZXZXZX* z +.,.o.8 ZXZXZXZXZXZXZXZXZXZXZXZXZXZXZXZXZXZXZX",
"ZXZXZXZXZXZXZXZXZXZXZXZXZXZXZXZXZXf 5 M L & I O ZXZXZXZXZXZXZXZXZXZXZXZXZXZXZXZXZXZXZXZXZXZXZXZXZXZX* : c ) O.8 ZXZXZXZXZXZXZXZXZXZXZXZXZXZXZXZXZXZXZX",
"ZXZXZXZXZXZXZXZXZXZXZXZXZXZXZXZXZXs 8 t M < =.ZXZXZXZXZXZXZXZXZXZXZXZXZXZXZXZXZXZXZXZXZXZXZXZXZXZXZX% k o.#.[ 0 ZXZXZXZXZXZXZXZXZXZXZXZXZXZXZXZXZXZXZX",
"ZXZXZXZXZXZXZXZXZXZXZXZXZXZXZXZXZX3 i y 8 7 s   ZXZXZXZXZXZXZXZXZXZXZXZXZXZXZXZXZXZXZXZXZXZXZXZXZXZX$ P Z / c z ZXZXZXZXZXZXZXZXZXZXZXZXZXZXZXZXZXZXZX",
"ZXZXZXZXZXZXZXZXZXZXZXZXZXZXZXZXZX+ y t 0 0 w ZXZXZXZXZXZXZXZXZXZXZXZXZXZXZXZXZXZXZXZXZXZXZXZXZXZXZXZXT j F X.-.ZXZXZXZXZXZXZXZXZXZXZXZXZXZXZXZXZXZXZX",
"ZXZXZXZXZXZXZXZXZXZXZXZXZXZXZXZXZXZXy 7 0 2 s ZXZXZXZXZXZXZXZXZXZXZXZXZXZXZXZXZXZXZXZXZXZXZXZXZXZXZXX ;.N P j 3 ZXZXZXZXZXZXZXZXZXZXZXZXZXZXZXZXZXZXZX",
"ZXZXZXZXZXZXZXZXZXZXZXZXZXZXZXZXZX# y < K & g ZXZXZXZXZXZXZXZXZXZXZXZXZXZXZXZXZXZXZXZXZXZXZXZXZXZXZXZXq & & ZXZXZXZXZXZXZXZXZXZXZXZXZXZXZXZXZXZXZXZXZX",
"ZXZXZXZXZXZXZXZXZXZXZXZXZXZXZXZXZXZX8 7 d - > ZXZXZXZXZXZXZXZXZXZXZXZXZXZXZXZXZXZXZXZXZXZXZXZXZXZXZXZXZXZXZXZXZXZXZXZXZXZXZXZXZXZXZXZXZXZXZXZXZXZXZXZX",
"ZXZXZXZXZXZXZXZXZXZXZXZXZXZXZXZXZXZX* i g r ZXZXZXZXZXZXZXZXZXZXZXZXZXZXZXZXZXZXZXZXZXZXZXZXZXZXZXZXZXZXZXZXZXZXZXZXZXZXZXZXZXZXZXZXZXZXZXZXZXZXZXZXZX",
"ZXZXZXZXZXZXZXZXZXZXZXZXZXZXZXZXZXZXI h h - ZXZXZXZXZXZXZXZXZXZXZXZXZXZXZXZXZXZXZXZXZXZXZXZXZXZXZXZXZXZXZXZXZXZXZXZXZXZXZXZXZXZXZXZXZXZXZXZXZXZXZXZXZX",
"ZXZXZXZXZXZXZXZXZXZXZXZXZXZXZXZXZXZX- , r p ZXZXZXZXZXZXZXZXZXZXZXZXZXZXZXZXZXZXZXZXZXZXZXZXZXZXZXZXZXZXZXZXZXZXZXZXZXZXZXZXZXZXZXZXZXZXZXZXZXZXZXZXZX",
"ZXZXZXZXZXZXZXZXZXZXZXZXZXZXZXZXZXZXp I - 9 ZXZXZXZXZXZXZXZXZXZXZXZXZXZXZXZXZXZXZXZXZXZXZXZXZXZXZXZXZXZXZXZXZXZXZXZXZXZXZXZXZXZXZXZXZXZXZXZXZXZXZXZXZX",
"ZXZXZXZXZXZXZXZXZXZXZXZXZXZXZXZXZXZX$ =.+ 3 ZXZXZXZXZXZXZXZXZXZXZXZXZXZXZXZXZXZXZXZXZXZXZXZXZXZXZXZXZXZXZXZXZXZXZXZXZXZXZXZXZXZXZXZXZXZXZXZXZXZXZXZXZX",
"ZXZXZXZXZXZXZXZXZXZXZXZXZXZXZXZXZXZX= e 3 ZXZXZXZXZXZXZXZXZXZXZXZXZXZXZXZXZXZXZXZXZXZXZXZXZXZXZXZXZXZXZXZXZXZXZXZXZXZXZXZXZXZXZXZXZXZXZXZXZXZXZXZXZXZX",
"ZXZXZXZXZXZXZXZXZXZXZXZXZXZXZXZXZXZXw & s ZXZXZXZXZXZXZXZXZXZXZXZXZXZXZXZXZXZXZXZXZXZXZXZXZXZXZXZXZXZXZXZXZXZXZXZXZXZXZXZXZXZXZXZXZXZXZXZXZXZXZXZXZXZX",
"ZXZXZXZXZXZXZXZXZXZXZXZXZXZXZXZXZXZX< o s ZXZXZXZXZXZXZXZXZXZXZXZXZXZXZXZXZXZXZXZXZXZXZXZXZXZXZXZXZXZXZXZXZXZXZXZXZXZXZXZXZXZXZXZXZXZXZXZXZXZXZXZXZXZX",
"ZXZXZXZXZXZXZXZXZXZXZXZXZXZXZXZXZXZXK q # ZXZXZXZXZXZXZXZXZXZXZXZXZXZXZXZXZXZXZXZXZXZXZXZXZXZXZXZXZXZXZXZXZXZXZXZXZXZXZXZXZXZXZXZXZXZXZXZXZXZXZXZXZXZX",
"ZXZXZXZXZXZXZXZXZXZXZXZXZXZXZXZXZXZX* 3 ZXZXZXZXZXZXZXZXZXZXZXZXZXZXZXZXZXZXZXZXZXZXZXZXZXZXZXZXZXZXZXZXZXZXZXZXZXZXZXZXZXZXZXZXZXZXZXZXZXZXZXZXZXZXZX",
"ZXZXZXZXZXZXZXZXZXZXZXZXZXZXZXZXZXZXZX2 ZXZXZXZXZXZXZXZXZXZXZXZXZXZXZXZXZXZXZXZXZXZXZXZXZXZXZXZXZXZXZXZXZXZXZXZXZXZXZXZXZXZXZXZXZXZXZXZXZXZXZXZXZXZXZX"
};
