/* XPM */
static char *door_11754906272[] = {
/* columns rows colors chars-per-pixel */
"75 75 256 2 ",
"   c #0A0300",
".  c #150200",
"X  c #1C0100",
"o  c #1C0B02",
"O  c #1A0909",
"+  c #181107",
"@  c #240300",
"#  c #2B0200",
"$  c #2C0C01",
"%  c #260905",
"&  c #330300",
"*  c #3A0400",
"=  c #330C00",
"-  c #3B0B00",
";  c #38010A",
":  c #2C1403",
">  c #24130B",
",  c #271607",
"<  c #351302",
"1  c #3B1401",
"2  c #381908",
"3  c #2A0112",
"4  c #3A1D12",
"5  c #3E0611",
"6  c #3D280A",
"7  c #3A2215",
"8  c #440D01",
"9  c #490800",
"0  c #520700",
"q  c #441500",
"w  c #4C1400",
"e  c #441B02",
"r  c #4C1C02",
"t  c #431D0B",
"y  c #461809",
"u  c #531C01",
"i  c #5B1D00",
"p  c #561602",
"a  c #481A14",
"s  c #511215",
"d  c #641A00",
"f  c #711500",
"g  c #4D2203",
"h  c #4C230B",
"j  c #472509",
"k  c #542304",
"l  c #5C2403",
"z  c #5C2B01",
"x  c #54240B",
"c  c #5A250B",
"v  c #542A0D",
"b  c #5C2B0D",
"n  c #542B03",
"m  c #5A3408",
"M  c #432314",
"N  c #4C2413",
"B  c #4D2A13",
"V  c #4B2C1C",
"C  c #44271A",
"Z  c #542B13",
"A  c #5B2C13",
"S  c #592D1B",
"D  c #552715",
"F  c #4A3217",
"G  c #553315",
"H  c #5D3114",
"J  c #5D331C",
"K  c #5A3B1C",
"L  c #642402",
"P  c #6D2502",
"I  c #642B04",
"U  c #6A2C03",
"Y  c #632D0C",
"T  c #6B2C0B",
"R  c #64240B",
"E  c #722401",
"W  c #732B02",
"Q  c #7C2C02",
"!  c #732D0C",
"~  c #7B2908",
"^  c #643302",
"/  c #6D3203",
"(  c #64330D",
")  c #6B320C",
"_  c #6A3A0B",
"`  c #743203",
"'  c #7B3203",
"]  c #73330C",
"[  c #7B340B",
"{  c #723C0D",
"}  c #7B3B0A",
"|  c #632E13",
" . c #6C2D19",
".. c #672D17",
"X. c #732E17",
"o. c #643214",
"O. c #6C3414",
"+. c #63351B",
"@. c #6B341B",
"#. c #6B3A1C",
"$. c #653A19",
"%. c #743313",
"&. c #7D3413",
"*. c #763914",
"=. c #7B3B14",
"-. c #733B1A",
";. c #7C3B1B",
":. c #76351B",
">. c #4B2D22",
",. c #542C23",
"<. c #5C3424",
"1. c #5A3827",
"2. c #4D3121",
"3. c #643B24",
"4. c #6D3E24",
"5. c #653926",
"6. c #773C23",
"7. c #77441A",
"8. c #684327",
"9. c #7B4323",
"0. c #774628",
"q. c #774A34",
"w. c #7A5239",
"e. c #624330",
"r. c #775D4C",
"t. c #7C6352",
"y. c #842D01",
"u. c #892B00",
"i. c #852C0C",
"p. c #942E00",
"a. c #823303",
"s. c #8C3401",
"d. c #8B340B",
"f. c #843A0C",
"g. c #8C3C0A",
"h. c #863707",
"j. c #933303",
"k. c #953B03",
"l. c #933C0B",
"z. c #9B3B0C",
"x. c #993705",
"c. c #833414",
"v. c #843B13",
"b. c #8C3C13",
"n. c #86361A",
"m. c #843C1A",
"M. c #8B3617",
"N. c #9C3D12",
"B. c #943717",
"V. c #932C17",
"C. c #A63903",
"Z. c #B23E05",
"A. c #883925",
"S. c #933D22",
"D. c #833333",
"F. c #8B4209",
"G. c #9C430D",
"H. c #984508",
"J. c #824215",
"K. c #8C4312",
"L. c #83431B",
"P. c #8B431A",
"I. c #8A4A1C",
"U. c #944312",
"Y. c #9C4414",
"T. c #934A1B",
"R. c #9D4C1B",
"E. c #98451B",
"W. c #9A5319",
"Q. c #A3430C",
"!. c #A74606",
"~. c #B6480A",
"^. c #BA530E",
"/. c #A34414",
"(. c #A44A14",
"). c #AB4A13",
"_. c #A54819",
"`. c #B54915",
"'. c #A8541B",
"]. c #B75517",
"[. c #AF560E",
"{. c #874726",
"}. c #944422",
"|. c #944C22",
" X c #9C4D24",
".X c #974929",
"XX c #8A5529",
"oX c #9C5123",
"OX c #9C542C",
"+X c #98582A",
"@X c #894B32",
"#X c #8A5538",
"$X c #9C5C34",
"%X c #975537",
"&X c #954E36",
"*X c #A24B24",
"=X c #A75828",
"-X c #B25C2C",
";X c #B85928",
":X c #A45B33",
">X c #AB5C33",
",X c #A5573A",
"<X c #B35C35",
"1X c #AC612D",
"2X c #BA642B",
"3X c #A9673A",
"4X c #B26334",
"5X c #BC6333",
"6X c #B76A38",
"7X c #BF713F",
"8X c #9B693A",
"9X c #C55619",
"0X c #C74E17",
"qX c #C85B26",
"wX c #D45E25",
"eX c #D95C23",
"rX c #C55C37",
"tX c #C76529",
"yX c #D86729",
"uX c #C76937",
"iX c #D66A34",
"pX c #C5723D",
"aX c #CC733C",
"sX c #D87638",
"dX c #C6712E",
"fX c #E9743B",
"gX c #875D42",
"hX c #8A6448",
"jX c #966646",
"kX c #8E6C57",
"lX c #A86943",
"zX c #B46C45",
"xX c #AD7147",
"cX c #B97449",
"vX c #A97654",
"bX c #B67A56",
"nX c #A26950",
"mX c #9E7B62",
"MX c #AD5E40",
"NX c #C77645",
"BX c #D67D43",
"VX c #C47448",
"CX c #E6813E",
"ZX c #AE866A",
"AX c #CA8248",
"SX c #D98648",
"DX c #C88658",
"FX c #D88A55",
"GX c #D7925B",
"HX c #E78F52",
"JX c #C48C66",
"KX c #D29067",
"LX c #EB9E67",
"PX c #EDA371",
"IX c #D5A67F",
"UX c None",
/* pixels */
"UXUXUXUXUXUXUXUXUXUXUXUXUXUXUXUXUXUXUXUXUXUXUXUXUXUXUXUXUXUXUXUXUXUXUXUXUXUXUXUXUXUXUXUXUXUXUXUXUXUXUXUXUXUXUXUXUXUXUXUXUXUXUXUXUXUXUXUXUXUXUXUXUXUXUX",
"UXUXUXUXUXUXUXUXUXUXUXUXUXUXUXUXUXUXUXUXUXUXUXUXUXUXUXUXUXUXUXUXUXUXUXUXUXUXUXUXUXUXUXUXUXUXUXUXUXUXUXUXUXUXUXUXUXUXUXUXUXUXUXUXUXUXUXUXUXUXUXUXUXUXUX",
"UXUXUXUXUXUXUXUXUXUXUXUXUXUX$ B w c +.l q h J h 1 v J J B h y - 2 # h = h 1 G g r b 0.hXw.jXq.hXjXgXq.#XhXhXjXhXhXw.t.r.UXUXUXUXUXUXUXUXUXUXUXUXUXUXUX",
"UXUXUXUXUXUXUXUXUXUXUXUXUXUXw.bX>X-X=X-X4X>XT.:XzX}.|.` {.v.<XzXXXJ.zXT.cXOX4X4X3XoXT.6XT.6X=X3X6X3X+XxXxXDXAXAXGXZXvXkXUXUXUXUXUXUXUXUXUXUXUXUXUXUXUX",
"UXUXUXUXUXUXUXUXUXUXUXUXUXUX;.uX~.eXfXyX`.iXqXqXtXx.tXk.2Xu.~.tXa.Q ].j.tXC.Q.).].].'.SXQ.dX2XtX2X2X2XpXFXFXSX2X].GXJXmXUXUXUXUXUXUXUXUXUXUXUXUXUXUXUX",
"UXUXUXUXUXUXUXUXUXUXUXUXUXUX%.NX~.eXeXyX9XyX9XwXyX!.sXk.2X).`.<XR.g.=X(.uX<X5XtX5XNX2XAX2XpX6X6X6X1XcXxXPXAXSXSXtXLXbX<.UXUXUXUXUXUXUXUXUXUXUXUXUXUXUX",
"UXUXUXUXUXUXUXUXUXUXUXUXUXUX%.uX~.eX~.wX9XyX~.0XwX].dXs.).;XN.*XOX} J.XX:XzXxXzX3XDXlXlXvX3X$X$XjXXXvXgXIX8X7XSXdXLX3X@ UXUXUXUXUXUXUXUXUXUXUXUXUXUXUX",
"UXUXUXUXUXUXUXUXUXUXUXUXUXUX0.pX~.wXC.wX0XyX~.eXwX].W.a.G.E.*Xn.{.Y 0.0.q.8.H o.| 4.H Z 1.q.gXw.w.hXZXt.ZX8.3XSXSXGXZXV UXUXUXUXUXUXUXUXUXUXUXUXUXUXUX",
"UXUXUXUXUXUXUXUXUXUXUXUXUXUX#XNX^.yXx.yX^.tX`.eXyX2X` Q d.i.,XX.X.# UXUXUXUX@ UX@ UXUXUX% UXUXUXUX  UXUXUX% 8XAXHXAXZXr.UXUXUXUXUXUXUXUXUXUXUXUXUXUXUX",
"UXUXUXUXUXUXUXUXUXUXUXUXUXUXXXNX~.yXx.yX!.yX!.wXwXaXw E z.E.:X! &.UXUXUX& UXUXUXUXUX= UXUXUX. 7 UXUXUXUXUX% 3XAXHXGXZXkXUXUXUXUXUXUXUXUXUXUXUXUXUXUXUX",
"UXUXUXUXUXUXUXUXUXUXUXUXUXUX0.pXC.yXC.tXx.iX!.qXyXVX* d z.uX>XE P.8 $ jXzXlX&X6.G # A gXZ V X q.#.u UX$ o < xXAXSXLX8XhXUXUXUXUXUXUXUXUXUXUXUXUXUXUXUX",
"UXUXUXUXUXUXUXUXUXUXUXUXUXUX9.4XZ.yXC.qXj.uXQ.].tXcX* 0 x.<X6XQ G.9 & vX<XVX<X&XG & %.%XI S UXgXP..XR D UXe xXSXSXHXnXe.UXUXUXUXUXUXUXUXUXUXUXUXUXUXUX",
"UXUXUXUXUXUXUXUXUXUXUXUXUXUX9.-X~.yXp.;Xa.5X(.).iX,X* 9 C.;XNXs.H.d * cX].iXrXzXn - c.T.U | @ @XY.5XS.q.@ r 3XLXHXDXvXM UXUXUXUXUXUXUXUXUXUXUXUXUXUXUX",
"UXUXUXUXUXUXUXUXUXUXUXUXUXUXR =X~.iXp.iX/.;X'.z.u.S.6.~ u._.5X).H.K.d 6X9X0XqXVXz r W h.' l - .Xl.;XA.&XX g 3XLXsXFXlX2 UXUXUXUXUXUXUXUXUXUXUXUXUXUXUX",
"UXUXUXUXUXUXUXUXUXUXUXUXUXUXw >X`.iXj.NX1XY.'.qXQ.:XbXbXVX<X=X;Xs.2Xf.;X].Z.`.zX/ / E W ` L w R.u.d.i.&XX r :XPXaXGXjX7 UXUXUXUXUXUXUXUXUXUXUXUXUXUXUX",
"UXUXUXUXUXUXUXUXUXUXUXUXUXUX8 >X].qXj.uXR.l.).rXBXVX%X{.*X*X;XuXk.].C.].^.^.wXrXK.T.f.=X6X+XP W.g.B.V.&XUXe cXGXBXDXbX< UXUXUXUXUXUXUXUXUXUXUXUXUXUXUX",
"UXUXUXUXUXUXUXUXUXUXUXUXUXUX- ,X;X'.l.4Xh.N.(.x./.>XI w ] c.rXuXQ.!.~.~.~.qXiX;X'.6XoXT.K.=XH.'.H.E.B.@X< g JXcXFXcXJX% UXUXUXUXUXUXUXUXUXUXUXUXUXUXUX",
"UXUXUXUXUXUXUXUXUXUXUXUXUXUX& MX/./.x.6XW f.P.f Y.=Xr & q P rXuX!.~.!.^.!.iX0XqXL.} 7.K.K.(.H.=Xf.x.N.m.< o.DX6XHXcXZX@ UXUXUXUXUXUXUXUXUXUXUXUXUXUXUX",
"UXUXUXUXUXUXUXUXUXUXUXUXUXUX& xXd.N.p.NXE [ A.UXU.+Xq UXX d uXwX`.9XC.9XZ.fXC.<XY UXL J.f.g.H.'.g.u._.&.= 8.bX1XHXxXmX% UXUXUXUXUXUXUXUXUXUXUXUXUXUXUX",
"UXUXUXUXUXUXUXUXUXUXUXUXUXUX& $XE.N.C.pX' ! D.9 T.|.1 UX  I SXeX0X9X[.!.;X0X0X XZ UXu I.f.W.G.Y.E.j.!.L.# #.3X>XNXVXbX7 UXUXUXUXUXUXUXUXUXUXUXUXUXUXUX",
"UXUXUXUXUXUXUXUXUXUXUXUXUXUX# %X*XN._.tX} %.D.9 +XI.6   UX_ HXeXwX].tXk.iXC.yXL.C % q XXK.-X_.B.-Xj.H.T.& | $X4X=X3X$.@ UXUXUXUXUXUXUXUXUXUXUXUXUXUXUX",
"UXUXUXUXUXUXUXUXUXUXUXUXUXUXX 0.P.j./.5X' b.A.~ W.7.j UXUX*.CXeX0X9X2XQ.;X~.0X|.7 UXu OXl.'._.d.>Xx.H.J.8 @.+X4X1X3X#.X UXUXUXUXUXUXUXUXUXUXUXUXUXUXUX",
"UXUXUXUXUXUXUXUXUXUXUXUXUXUXUX0.c.u.C.;XQ R.B.*XW.7.B O O @.yXtX`.^.].^.z.9X!.$X2 UX) >Xg.G._.d.*Xl.'.] u -.$X6X1X3X#.o UXUXUXUXUXUXUXUXUXUXUXUXUXUXUX",
"UXUXUXUXUXUXUXUXUXUXUXUXUXUXUXH M.d./.'.s.G.z.(.(.7.6 UX3 6.iXyXqX~.9X).z.[.H.#X, UX:.4Xl.l.).z.*XB.OXT w -.3X6X1X+XJ % UXUXUXUXUXUXUXUXUXUXUXUXUXUXUX",
"UXUXUXUXUXUXUXUXUXUXUXUXUXUX+ g S.z.*X).H.C.H.k.'.{ 6 UX3 A.iXsXiXC.9X).Y.Q.H.XX, UXc.4Xl.G.Y./.R.M.&XT 8 =.3X6X=X7.g , UXUXUXUXUXUXUXUXUXUXUXUXUXUXUX",
"UXUXUXUXUXUXUXUXUXUXUXUXUXUXUXv S.d.-Xz.G.H.!.j.).{ 6 > 3 A.iXiX;X!.^.).N.G.H.7.UXUXn.<Xg.R.s.l.U.a.{.R w 7.3X6X'.7.x o UXUXUXUXUXUXUXUXUXUXUXUXUXUXUX",
"UXUXUXUXUXUXUXUXUXUXUXUXUXUXUXH S.y.4Xg.U.H.H.j.(.*.j UX3 @XtXqX).).!.H.U.E.G.7.UXUXn.>XT.'.Q a.b.W m.T u {.T.1X1X7.z UXUXUXUXUXUXUXUXUXUXUXUXUXUXUXUX",
"UXUXUXUXUXUXUXUXUXUXUXUXUXUX. @.S.E 1XK.K.a.H.a.Y.=.G UX# @X2X]./.Q.F.F.U./.B.XXUXUXA.n.P W d U.g.~ {.) i L.+XT.1XXXe UXUXUXUXUXUXUXUXUXUXUXUXUXUXUXUX",
"UXUXUXUXUXUXUXUXUXUXUXUXUXUXUX#.M.E OXI.7.P K.Q b.=.J # ; {.2XQ.z.k.F.F.U.N.V.jXUXe n..X+X} d  Xc.} .X*.i %.:Xf.1X$X# UXUXUXUXUXUXUXUXUXUXUXUXUXUXUXUX",
"UXUXUXUXUXUXUXUXUXUXUXUXUXUX. k }.i. X=.7.U v.' f.*.3.UX5 @X5Xu.i.Q 7.T.H._.V.{.UXu S.OXL.W p :XW [ {.Y u L.|.K. X{.UXUXUXUXUXUXUXUXUXUXUXUXUXUXUXUXUX",
"UXUXUXUXUXUXUXUXUXUXUXUXUXUXUX1 .Xc.}.! I.I } [ i.%.4.# s &X4Xd E P a.'.g.N.V.$Xg {.B.OX/ U p 4XL *.*.l w %XP. Xb.) UXUXUXUXUXUXUXUXUXUXUXUXUXUXUXUXUX",
"UXUXUXUXUXUXUXUXUXUXUXUXUXUX  < {.i.S.c.{.l =.E &.O.3.# s &X(.E p c.Q K.(.l.Y.T.U |.M.}.} L p $XU ) *.| * lXv.E.*XO.UXUXUXUXUXUXUXUXUXUXUXUXUXUXUXUXUX",
"UXUXUXUXUXUXUXUXUXUXUXUXUXUXUXUX{.~ B.A.9.w ;.P &.O.+.# s ,XH.[ w .Xy.Q =Xg.R.f.' Y.d.M.I.U 9 |.*.^ -.O.* lXm.N.-X-.UXUXUXUXUXUXUXUXUXUXUXUXUXUXUXUXUX",
"UXUXUXUXUXUXUXUXUXUXUXUXUXUXUX@ L.i.n.&.@Xp =.d ] -.J # s @X>X! :.{.W a.x.(.U.f.v.d.l.P.=./ i J.L.] %.) w &X&.}.B.+.UXUXUXUXUXUXUXUXUXUXUXUXUXUXUXUXUX",
"UXUXUXUXUXUXUXUXUXUXUXUXUXUXUXUXL.c.[ R @Xu %.! E 9.A UXx A.VXf ,X=.I g.E -X' =.m.W Y.oX! / / } P.v.` U I {.&.*XM.Y UXUXUXUXUXUXUXUXUXUXUXUXUXUXUXUXUX",
"UXUXUXUXUXUXUXUXUXUXUXUXUXUXUXX } ' ] ..{.p X.! T ;.o.@ 6 @XMX~ .X/ ^ f.u.*X[ :.R L h.T.A.l ^ f.l.T.Q W ) =.[ T.c.A UXUXUXUXUXUXUXUXUXUXUXUXUXUXUXUXUX",
"UXUXUXUXUXUXUXUXUXUXUXUXUXUXUXUX/ ` ) -.6.0 X.T %.O.-.@ < #X.Xn.d.l _ ' z.M.X.@.- i ' K.&X9 l P.l.(.' ' ] [ [ n.v.H UXUXUXUXUXUXUXUXUXUXUXUXUXUXUXUXUX",
"UXUXUXUXUXUXUXUXUXUXUXUXUXUXUXUXU ` O.X.@X9 O.T ] %.-.# j @X,XE }.i n ' d.i.X. .# u a.K.@Xl XX=Xu.R.' ' ] &.v.v.&.J UXUXUXUXUXUXUXUXUXUXUXUXUXUXUXUXUX",
"UXUXUXUXUXUXUXUXUXUXUXUXUXUXUXUX) ) -.Y #X& T Y ] O.*.& D {.MXd +Xp r [ ~ &.X.,.UXu F.L.0.9 i f.y.T.` ` ] &.c.n.*.G UXUXUXUXUXUXUXUXUXUXUXUXUXUXUXUXUX",
"UXUXUXUXUXUXUXUXUXUXUXUXUXUXUXUXY R O.O.@X9 O.I ) ) O.= R 6.,XT L.p d ` W &.X.S UXc f.A.4.* L c.M.P.) ) ] &.M.c.O.j UXUXUXUXUXUXUXUXUXUXUXUXUXUXUXUXUX",
"UXUXUXUXUXUXUXUXUXUXUXUXUXUXUXUXc R | -.6.w R Y I ( ) = R %.S.;.( p P W ` :.:.>.UXS y.6.5.- ! &.E.7.{ ) ! &.n.&.Y < UXUXUXUXUXUXUXUXUXUXUXUXUXUXUXUXUX",
"UXUXUXUXUXUXUXUXUXUXUXUXUXUXUXUXr @...#.-.8 Y I Y ( o.* Y X.n.=.^ p ` / ] :.X.,.UXZ ' l e.- X.! a.=.^ ^ T c.M.&.( : UXUXUXUXUXUXUXUXUXUXUXUXUXUXUXUXUX",
"UXUXUXUXUXUXUXUXUXUXUXUXUXUXUXUXy 5...+.O.* Y z Y | o.= b %.n.&.^ k / ^ U %. .,.. Z ` 8 5.- ] ' y.J.z ^ U &.n.;.H : UXUXUXUXUXUXUXUXUXUXUXUXUXUXUXUXUX",
"UXUXUXUXUXUXUXUXUXUXUXUXUXUXUXUX- ..c @XnX8 Y c b Y o.- ( %.c.%.I z m / %.:. .,.UXG ^ q 3.- %.P } T.z ^ / &.n.%.h : UXUXUXUXUXUXUXUXUXUXUXUXUXUXUXUXUX",
"UXUXUXUXUXUXUXUXUXUXUXUXUXUXUXUX- S x @.0.@ ..c b | o.& m O.c.%.z _ g m } ;. .s UXK z g <.= / T.GXDXz m { &.&.| j UXUXUXUXUXUXUXUXUXUXUXUXUXUXUXUXUXUX",
"UXUXUXUXUXUXUXUXUXUXUXUXUXUXUXUX= <.r O.{.8 i x A A H # v R %.! z $.1 z *.=. .a UXK ^ q 5.# T 3XPXGXz m / %.*...B % UXUXUXUXUXUXUXUXUXUXUXUXUXUXUXUXUX",
"UXUXUXUXUXUXUXUXUXUXUXUXUXUXUXUX# 5.q ( -...8 a ( H A @ g k | R z H < n { :. .2 UX8.^ 1 1.# O.{.=X8X^ ^ T ) O.+.G UXUXUXUXUXUXUXUXUXUXUXUXUXUXUXUXUXUX",
"UXUXUXUXUXUXUXUXUXUXUXUXUXUXUXUX# <.h o.*.D 9 D $.r A # 1 Z +.c R N # v _ *.X.< UX8./ 1 >.1 | =.I.7.^ n ) ) o.+.1.UXUXUXUXUXUXUXUXUXUXUXUXUXUXUXUXUXUX",
"UXUXUXUXUXUXUXUXUXUXUXUXUXUXUXUX# S D _ _ r ; ,.#.= +.= = <.3.r A y @ S _ *. .1 UX8./ e 4 V A T ] ^ m u O.| o.+.5.UXUXUXUXUXUXUXUXUXUXUXUXUXUXUXUXUXUX",
"UXUXUXUXUXUXUXUXUXUXUXUXUXUXUXUXX <.h O.) r & 5.n v 3.& w S +.u | # UX<.z ) ..N UXZ / k 4 @ # p L ) n k ( O.+.S V UXUXUXUXUXUXUXUXUXUXUXUXUXUXUXUXUXUX",
"UXUXUXUXUXUXUXUXUXUXUXUXUXUXUXUXUX1.t o.{ u * J 1 8.3.= ..S +.k | @ X 1.u I | S @ e o.h < = A 6.l O.g z I O.#.S 2 o UXUXUXUXUXUXUXUXUXUXUXUXUXUXUXUXUX",
"UXUXUXUXUXUXUXUXUXUXUXUXUXUXUXUXX M D | l b # <.e S +.q c D J w O.= UX3.u Y o.J $ e J N < = r #.l O.r z ( #.X.D : UXUXUXUXUXUXUXUXUXUXUXUXUXUXUXUXUXUX",
"UXUXUXUXUXUXUXUXUXUXUXUXUXUXUXUXUX% 3.| r O.@ $.h 1 S x u x o.q -.M O 3.p ) $.A = y <.N 1 - 1 #.| -.u z _ O. .y , UXUXUXUXUXUXUXUXUXUXUXUXUXUXUXUXUXUX",
"UXUXUXUXUXUXUXUXUXUXUXUXUXUXUXUX. $ 5.+.u O.- G 1 2 g Z - u +.8 #.2 UX1.i ( H #.& y <.M = 1 t D & k u l ^ O.@.N , UXUXUXUXUXUXUXUXUXUXUXUXUXUXUXUXUXUX",
"UXUXUXUXUXUXUXUXUXUXUXUXUXUXUXUXUX4 <.o.l O.e v < B < K UXr @.w $.: UX1.l Y A 4.# y <.2 UX1 N q.D #.u k l | @.C , o UXUXUXUXUXUXUXUXUXUXUXUXUXUXUXUXUX",
"UXUXUXUXUXUXUXUXUXUXUXUXUXUXUXUX. 2 N D c b - Z : K : F UX1 @.w b 2   2.L Y c 4.# D 1.t @ = N S q @.r u z o.+.t UXUXUXUXUXUXUXUXUXUXUXUXUXUXUXUXUXUXUX",
"UXUXUXUXUXUXUXUXUXUXUXUXUXUXUXUXUX, 1 h k c # J < 8.o 6 UX1 @.u l 7 UXC Y Y x 4.@ J <.t UX< a 2 & +.q i z o.<.2 UXUXUXUXUXUXUXUXUXUXUXUXUXUXUXUXUXUXUX",
"UXUXUXUXUXUXUXUXUXUXUXUXUXUXUXUXO X t x w Y # +.j G 2 F UXe @.w & 1 UXM R Y x b - S S y @ = N UX& 3.q Y u H 8.< UXUXUXUXUXUXUXUXUXUXUXUXUXUXUXUXUXUXUX",
"UXUXUXUXUXUXUXUXUXUXUXUXUXUXUXUXUXX ,.N w @.* A v 2 G K < n | #.$.J $ y Y Y c r w x J 1 UX< Z . = $.- -.w b 8.4 UXUXUXUXUXUXUXUXUXUXUXUXUXUXUXUXUXUXUX",
"UXUXUXUXUXUXUXUXUXUXUXUXUXUXUXUXUXUXV 1 u 4.& r b e b n 2 g o.( k A x r | | | k c b A e = t G < 1 H - Y u o.B C UXUXUXUXUXUXUXUXUXUXUXUXUXUXUXUXUXUXUX",
"UXUXUXUXUXUXUXUXUXUXUXUXUXUXUXUXUX> 7 # A #.# - b e c q 1 g +.v e k O.r J ( A Y b A b g e v H G j m 1 r k J $ >.UXUXUXUXUXUXUXUXUXUXUXUXUXUXUXUXUXUXUX",
"UXUXUXUXUXUXUXUXUXUXUXUXUXUXUXUXUXUXC : Z 3.UX1 y < M g = e Z B h t g e S D v c b v b A g v G G j 8.1 q g 1.V >.UXUXUXUXUXUXUXUXUXUXUXUXUXUXUXUXUXUXUX",
"UXUXUXUXUXUXUXUXUXUXUXUXUXUXUXUXUX> 7 7 2 1.UX4 , UX4 7 @ : 7 >.V < @ 1 Z B h t g h v +.e g v v e 8.< < < UXUXUXUXUXUXUXUXUXUXUXUXUXUXUXUXUXUXUXUXUXUX",
"UXUXUXUXUXUXUXUXUXUXUXUXUXUXUXUXUXUX+ , % , UXUXUXUX+ > UX. > > , o UX: C M j 2 1 h e J - r c x q <.< : UXUXUXUXUXUXUXUXUXUXUXUXUXUXUXUXUXUXUXUXUXUXUX",
"UXUXUXUXUXUXUXUXUXUXUXUXUXUXUXUXUXUXUXUXUXUXUXUXUXUXUXUXUXUXUXUXUXUXUX> 7 7 6 : $ j # S UXq x x 8 V : UXUXUXUXUXUXUXUXUXUXUXUXUXUXUXUXUXUXUXUXUXUXUXUX",
"UXUXUXUXUXUXUXUXUXUXUXUXUXUXUXUXUXUXUXUXUXUXUXUXUXUXUXUXUXUXUXUXUXUXUXUX+ > % . UX7 2.2.@ = N a 8 4 UXUXUXUXUXUXUXUXUXUXUXUXUXUXUXUXUXUXUXUXUXUXUXUXUX",
"UXUXUXUXUXUXUXUXUXUXUXUXUXUXUXUXUXUXUXUXUXUXUXUXUXUXUXUXUXUXUXUXUXUXUXUXUXUXUXUXUXUXUX. UX4 C 4 4 UXUXUXUXUXUXUXUXUXUXUXUXUXUXUXUXUXUXUXUXUXUXUXUXUXUX",
"UXUXUXUXUXUXUXUXUXUXUXUXUXUXUXUXUXUXUXUXUXUXUXUXUXUXUXUXUXUXUXUXUXUXUXUXUXUXUXUXUXUXUXUXUXUXO > UXUXUXUXUXUXUXUXUXUXUXUXUXUXUXUXUXUXUXUXUXUXUXUXUXUXUX",
"UXUXUXUXUXUXUXUXUXUXUXUXUXUXUXUXUXUXUXUXUXUXUXUXUXUXUXUXUXUXUXUXUXUXUXUXUXUXUXUXUXUXUXUXUXUXUXUXUXUXUXUXUXUXUXUXUXUXUXUXUXUXUXUXUXUXUXUXUXUXUXUXUXUXUX",
"UXUXUXUXUXUXUXUXUXUXUXUXUXUXUXUXUXUXUXUXUXUXUXUXUXUXUXUXUXUXUXUXUXUXUXUXUXUXUXUXUXUXUXUXUXUXUXUXUXUXUXUXUXUXUXUXUXUXUXUXUXUXUXUXUXUXUXUXUXUXUXUXUXUXUX",
"UXUXUXUXUXUXUXUXUXUXUXUXUXUXUXUXUXUXUXUXUXUXUXUXUXUXUXUXUXUXUXUXUXUXUXUXUXUXUXUXUXUXUXUXUXUXUXUXUXUXUXUXUXUXUXUXUXUXUXUXUXUXUXUXUXUXUXUXUXUXUXUXUXUXUX",
"UXUXUXUXUXUXUXUXUXUXUXUXUXUXUXUXUXUXUXUXUXUXUXUXUXUXUXUXUXUXUXUXUXUXUXUXUXUXUXUXUXUXUXUXUXUXUXUXUXUXUXUXUXUXUXUXUXUXUXUXUXUXUXUXUXUXUXUXUXUXUXUXUXUXUX",
"UXUXUXUXUXUXUXUXUXUXUXUXUXUXUXUXUXUXUXUXUXUXUXUXUXUXUXUXUXUXUXUXUXUXUXUXUXUXUXUXUXUXUXUXUXUXUXUXUXUXUXUXUXUXUXUXUXUXUXUXUXUXUXUXUXUXUXUXUXUXUXUXUXUXUX",
"UXUXUXUXUXUXUXUXUXUXUXUXUXUXUXUXUXUXUXUXUXUXUXUXUXUXUXUXUXUXUXUXUXUXUXUXUXUXUXUXUXUXUXUXUXUXUXUXUXUXUXUXUXUXUXUXUXUXUXUXUXUXUXUXUXUXUXUXUXUXUXUXUXUXUX",
"UXUXUXUXUXUXUXUXUXUXUXUXUXUXUXUXUXUXUXUXUXUXUXUXUXUXUXUXUXUXUXUXUXUXUXUXUXUXUXUXUXUXUXUXUXUXUXUXUXUXUXUXUXUXUXUXUXUXUXUXUXUXUXUXUXUXUXUXUXUXUXUXUXUXUX"
};
