/* XPM */
static char *door_41754906421[] = {
/* columns rows colors chars-per-pixel */
"75 75 249 2 ",
"   c #0C0300",
".  c #0A0605",
"X  c #120300",
"o  c #1C0300",
"O  c #1D0D02",
"+  c #1C0A0B",
"@  c #170C06",
"#  c #191610",
"$  c #240301",
"%  c #2B0302",
"&  c #240C00",
"*  c #2B0C01",
"=  c #250709",
"-  c #350500",
";  c #3A0600",
":  c #340E00",
">  c #3A0C00",
",  c #2B1204",
"<  c #291607",
"1  c #351302",
"2  c #3B1401",
"3  c #341907",
"4  c #3C1904",
"5  c #341C0A",
"6  c #3A1C0B",
"7  c #2A1915",
"8  c #361C15",
"9  c #3C240B",
"0  c #3B2416",
"q  c #27221E",
"w  c #3B2922",
"e  c #430B00",
"r  c #4D0E00",
"t  c #441400",
"y  c #4C1500",
"u  c #441C01",
"i  c #4B1C02",
"p  c #441E0B",
"a  c #491C0C",
"s  c #521D02",
"d  c #5B1D00",
"f  c #561702",
"g  c #681E00",
"h  c #4B2304",
"j  c #44230D",
"k  c #4C240D",
"l  c #4A2808",
"z  c #522504",
"x  c #5D2302",
"c  c #5C2B03",
"v  c #542A0C",
"b  c #5D2B0D",
"n  c #562509",
"m  c #5D320C",
"M  c #593307",
"N  c #4C2915",
"B  c #4B2D1A",
"V  c #462715",
"C  c #522413",
"Z  c #532B13",
"A  c #5B2D14",
"S  c #532D1B",
"D  c #5A2D1A",
"F  c #592416",
"G  c #4D3017",
"H  c #543315",
"J  c #5D3114",
"K  c #54331C",
"L  c #5A331C",
"P  c #5E3919",
"I  c #4A330B",
"U  c #622404",
"Y  c #642C04",
"T  c #6A2C05",
"R  c #642B0C",
"E  c #6A2E0B",
"W  c #662708",
"Q  c #722300",
"!  c #732C03",
"~  c #7A2D06",
"^  c #65330D",
"/  c #6C330C",
"(  c #6A3305",
")  c #7B3404",
"_  c #73340C",
"`  c #7B340B",
"'  c #7B3A0D",
"]  c #763C0A",
"[  c #642D14",
"{  c #6A2E13",
"}  c #6A2B16",
"|  c #722E16",
" . c #633414",
".. c #6B3313",
"X. c #63321B",
"o. c #6B331A",
"O. c #653A1B",
"+. c #6A3B18",
"@. c #743412",
"#. c #743A16",
"$. c #733A1C",
"%. c #7A3C1A",
"&. c #452A22",
"*. c #473225",
"=. c #5B3A24",
"-. c #54342A",
";. c #573627",
":. c #573D31",
">. c #5B2C20",
",. c #653523",
"<. c #613A23",
"1. c #683C28",
"2. c #773821",
"3. c #504E13",
"4. c #7A4116",
"5. c #544024",
"6. c #794628",
"7. c #6C4A35",
"8. c #7A4C34",
"9. c #754F32",
"0. c #7C712A",
"q. c #745B4D",
"w. c #7A644E",
"e. c #861911",
"r. c #822D02",
"t. c #8B2F00",
"y. c #833303",
"u. c #8B3302",
"i. c #823409",
"p. c #873A09",
"a. c #943300",
"s. c #9A3C03",
"d. c #943C0D",
"f. c #9A3805",
"g. c #8B3C12",
"h. c #843715",
"j. c #973B12",
"k. c #A43D01",
"l. c #AA3702",
"z. c #A02B1C",
"x. c #9C2C24",
"c. c #833822",
"v. c #A12E24",
"b. c #A33D36",
"n. c #9A410E",
"m. c #83421C",
"M. c #894518",
"N. c #934115",
"B. c #9B4313",
"V. c #92441B",
"C. c #994B10",
"Z. c #95521C",
"A. c #95530B",
"S. c #AA4604",
"D. c #B84608",
"F. c #BB5309",
"G. c #A64715",
"H. c #A95419",
"J. c #BB581B",
"K. c #B04313",
"L. c #9D6615",
"P. c #A26D1F",
"I. c #8E4D2B",
"U. c #874826",
"Y. c #934924",
"T. c #9B5225",
"R. c #95542C",
"E. c #9B552B",
"W. c #9A5C26",
"Q. c #8B4D34",
"!. c #8A5736",
"~. c #9C5B34",
"^. c #9B593A",
"/. c #A44D21",
"(. c #A45C2C",
"). c #A95827",
"_. c #BF5E25",
"`. c #B35D2B",
"'. c #B65829",
"]. c #A55C33",
"[. c #AD5C34",
"{. c #AA5B3B",
"}. c #B05E39",
"|. c #9A662D",
" X c #97682B",
".X c #95623C",
"XX c #9B6939",
"oX c #8C6A38",
"OX c #A9652A",
"+X c #B3622B",
"@X c #B56F2F",
"#X c #AC633B",
"$X c #A76637",
"%X c #B26433",
"&X c #B36A33",
"*X c #B9693A",
"=X c #BD753C",
"-X c #B77334",
";X c #B37835",
":X c #C95B18",
">X c #D05A19",
",X c #C9400A",
"<X c #D5641B",
"1X c #CD691A",
"2X c #CE5829",
"3X c #CD652A",
"4X c #D56428",
"5X c #D4712C",
"6X c #C56833",
"7X c #D26C36",
"8X c #C77439",
"9X c #D1753D",
"0X c #ED6F37",
"qX c #955544",
"wX c #825546",
"eX c #AF5D40",
"rX c #996845",
"tX c #8A6753",
"yX c #9A6855",
"uX c #98764F",
"iX c #A56A45",
"pX c #B86D45",
"aX c #BB7444",
"sX c #BA774A",
"dX c #AA7555",
"fX c #B87B56",
"gX c #AE6E56",
"hX c #B37F61",
"jX c #C47849",
"kX c #C76E51",
"lX c #E47047",
"zX c #C9843D",
"xX c #A98141",
"cX c #CB8449",
"vX c #D2894B",
"bX c #D29446",
"nX c #CD8657",
"mX c #DC8C55",
"MX c #D48858",
"NX c #D9965A",
"BX c #CD9550",
"VX c #EC9956",
"CX c #E28A50",
"ZX c #EBAE5D",
"AX c #E69966",
"SX c #E79170",
"DX c #EBA96D",
"FX c #D0946E",
"GX c None",
/* pixels */
"GXGXGXGXGXGXGXGXGXGXGXGXGXGXGXGXGXGXGXGXGXGXGXGXGXGXGXGXGXGXGXGXGXGXGXGXGXGXGXGXGXGXGXGXGXGXGXGXGXGXGXGXGXGXGXGXGXGXGXGXGXGXGXGXGXGXGXGXGXGXGXGXGXGXGX",
"GXGXGXGXGXGXGXGXGXGXGXGXGXGXGXGXGXGXGXGXGXGXGXGXGXGXGXGXGXGXGXGXGXGXGXGXGXGXGXGXGXGXGXGXGXGXGXGXGXGXGXGXGXGXGXGXGXGXGXGXGXGXGXGXGXGXGXGXGXGXGXGXGXGXGX",
"GXGXGXGXGXGXGXGXGXGXGXGXGXGX, b f W X.X.J t J J  .A v Z v u 2 a S 1 j u t a A y [ r R XXU.XX6.XXuX^.Q.qXyXiX4.$X XXXoXw.GXGXGXGXGXGXGXGXGXGXGXGXGXGXGX",
"GXGXGXGXGXGXGXGXGXGXGXGXGXGXI.uX0.XXkX6X%X).[.[.}.[.#XT.$X' R.Y.I.4.rXI.}.{.}.].pX(.%X*XT.*XE.#XpX$XE.$XsXBXaXnXsXMXiXyXGXGXGXGXGXGXGXGXGXGXGXGXGXGXGX",
"GXGXGXGXGXGXGXGXGXGXGXGXGXGXV.:X,X2XlX4XF.:X3XF.K.f.:Xs.6Xu.&XH.C.p.|.u.2X'.H.`.P.+X@X+X).jX(.#XpX%X(.@XzXvXcXaX{.SXkXyXGXGXGXGXGXGXGXGXGXGXGXGXGXGXGX",
"GXGXGXGXGXGXGXGXGXGXGXGXGXGXg.7X>X0X2X>XD.>X>X>X<XD.5Xs.:Xn._.G.a.u.H.H.6X`.A.+X@X=X@X8X+XjX%X$XE.$X&XcXDXmXmXaXsXSX*X8.GXGXGXGXGXGXGXGXGXGXGXGXGXGXGX",
"GXGXGXGXGXGXGXGXGXGXGXGXGXGXy._.k.2Xl.4X>X<Xl.:X1XS.5Xu.s.s.d.f.j.f.u.A.L.P.P.OX|. X XxX X|.$X XoXXXiXiXFX#XmX=XBXNX{.S GXGXGXGXGXGXGXGXGXGXGXGXGXGXGX",
"GXGXGXGXGXGXGXGXGXGXGXGXGXGXN.6XF.4Xl.5X+X+X%X%X*XM.OXh.$X~.R.Q.Q.8.6.g.z.v.v.v.x.x.x.v.e.2.!.Q./.qXtXtXuX!.MXcXbXvX{.N GXGXGXGXGXGXGXGXGXGXGXGXGXGXGX",
"GXGXGXGXGXGXGXGXGXGXGXGXGXGXW.9X5X4Xs.*X@.y i ; - $ C % % % * o GXGXGXGXGXGXGXGXGXGXGXGXGXGXGXGXGXGXGXGXGX$ $X=XbXmXkXwXGXGXGXGXGXGXGXGXGXGXGXGXGXGXGX",
"GXGXGXGXGXGXGXGXGXGXGXGXGXGXT.6Xl.2Xs.aX` n % GXGXGXGXGXGXGXGXGXGXGXGXGXGXGXGXGXGXGXGXGXGXGXGXGXGXGXGXGXGXGXXXNXZXmXgXtXGXGXGXGXGXGXGXGXGXGXGXGXGXGXGX",
"GXGXGXGXGXGXGXGXGXGXGXGXGXGXg.7Xl.4Xa.8Xr.2.GXGXGXGXGXGXGXGXGXGXGXGXGXGXGXGXGXGXGXGXGXGXGXGXGXGXGXGXGXGXGXo XXNXbX@XrXtXGXGXGXGXGXGXGXGXGXGXGXGXGXGXGX",
"GXGXGXGXGXGXGXGXGXGXGXGXGXGX2.6XK.4Xa.;X3.3.& GXGXGXGXGXGXGXGXGXGXGXGXGXGXGXGXGXGXGXGXGXGXGXGXGXGXGXGXGXGX* .XAXVXNXXX7.GXGXGXGXGXGXGXGXGXGXGXGXGXGXGX",
"GXGXGXGXGXGXGXGXGXGXGXGXGXGX#.).D.4Xd.7Xj.| j GXGXGXGXGXGXGXGXGXGXGXGXGXGXGXGXGXGXGXGXGXGXGXGXGXGXGXGXGXGX6 XXnX8XAX^.B GXGXGXGXGXGXGXGXGXGXGXGXGXGXGX",
"GXGXGXGXGXGXGXGXGXGXGXGXGXGX2.}.k.4Xa./.h.R K < GXGXGXGXGXGXGXGXGXGXGXGXGXGXGXGXGXGXGXGXGXGXGXGXGXGXGXGXGX5 rXAXVXAXrX6 GXGXGXGXGXGXGXGXGXGXGXGXGXGXGX",
"GXGXGXGXGXGXGXGXGXGXGXGXGXGXe ).f.7Xt.` ..x $.-.GXGXGXGXGXGXGXGXGXGXGXGXGXGXGXGXGXGXGXGXGXGXGXGXGXGXGXGXGX6 sXvXCXnXdX1 GXGXGXGXGXGXGXGXGXGXGXGXGXGXGX",
"GXGXGXGXGXGXGXGXGXGXGXGXGXGX; {.s.:Xr.T X.y 6.>.GX  GXGXGXGXGXGXGXGXGXGXGXGXGXGXGXGXGXGXGXGXGXGXGXGXGXGX. 4 fXjX8XjXfX1 GXGXGXGXGXGXGXGXGXGXGXGXGXGXGX",
"GXGXGXGXGXGXGXGXGXGXGXGXGXGX; }.K.H.! W ,.e c.F % GXGXGXGXGXGXGXGXGXGXGXGXGXGXGXGXGXGXGXGXGXGXGXGXGXGXGXGXp jXmXmXnXfX% GXGXGXGXGXGXGXGXGXGXGXGXGXGXGX",
"GXGXGXGXGXGXGXGXGXGXGXGXGXGX; iXs.'.i.h.o.U ^.2.p GXGXGXGXGXGXGXGXGXGXGXGXGXGXGXGXGXGXGXGXGXGXGXGXGXGXGXGXK nX+X*XsXhX* GXGXGXGXGXGXGXGXGXGXGXGXGXGXGX",
"GXGXGXGXGXGXGXGXGXGXGXGXGXGX- #Xt.6Xg.$X@.W 2.| Z GXGXGXGXGXGXGXGXGXGXGXGXGXGXGXGXGXGXGXGXGXGXGXGXGXGXGXGX<.jX*XAXMXdX$ GXGXGXGXGXGXGXGXGXGXGXGXGXGXGX",
"GXGXGXGXGXGXGXGXGXGXGXGXGXGX- ^.B.j.u.%Xi.| %.o.M 3 GXGXGXGXGXGXGXGXGXGXGXGXGXGXGXGXGXGXGXGXGXGXGXGXGXGXGX7.MXOX%XpXhX8 GXGXGXGXGXGXGXGXGXGXGXGXGXGXGX",
"GXGXGXGXGXGXGXGXGXGXGXGXGXGX% I./.u.).8Xy.` | ..c =.GXGXGXGXGXGXGXGXGXGXGXGXGXGXGXGXGXGXGXGXGXGXGXGXGXGXGXL #X%X=XR.,.$ GXGXGXGXGXGXGXGXGXGXGXGXGXGXGX",
"GXGXGXGXGXGXGXGXGXGXGXGXGXGX% 2.Y.t.j.6Xy.i.@...M =.GXGXGXGXGXGXGXGXGXGXGXGXGXGXGXGXGXGXGXGXGXGXGXGXGXGXGXL $X%X&X$XX.* GXGXGXGXGXGXGXGXGXGXGXGXGXGXGX",
"GXGXGXGXGXGXGXGXGXGXGXGXGXGXo { i.j.u.6Xu.i.| @.m L o GXGXGXGXGXGXGXGXGXGXGXGXGXGXGXGXGXGXGXGXGXGXGXGXGX= O.$X=X%X$XJ < GXGXGXGXGXGXGXGXGXGXGXGXGXGXGX",
"GXGXGXGXGXGXGXGXGXGXGXGXGXGXGXX.i.j.u.G.u.d._ Y v j :.GXGXGXGXGXGXGXGXGXGXGXGXGXGXGXGXGXGXGXGXGXGXGXGXGX= 7.|.=X%XR.J & GXGXGXGXGXGXGXGXGXGXGXGXGXGXGX",
"GXGXGXGXGXGXGXGXGXGXGXGXGXGXGXD g.'.6XG.t.j.! U n o :.GXGXGXGXGXGXGXGXGXGXGXGXGXGXGXGXGXGXGXGXGXGXGXGXGX= 9. X@X].m.A GXGXGXGXGXGXGXGXGXGXGXGXGXGXGXGX",
"GXGXGXGXGXGXGXGXGXGXGXGXGXGXX D j.i.G.j.G.).Q d s 1 q.o GXGXGXGXGXGXGXGXGXGXGXGXGXGXGXGXGXGXGXGXGXGXGXGX$ 6. X).(.I.i X GXGXGXGXGXGXGXGXGXGXGXGXGXGXGX",
"GXGXGXGXGXGXGXGXGXGXGXGXGXGXGXk Y.r.H.j.r.N.! g i p :.GXGXGXGXGXGXGXGXGXGXGXGXGXGXGXGXGXGXGXGXGXGXGXGXGX% 1.W.Z.(.~.: GXGXGXGXGXGXGXGXGXGXGXGXGXGXGXGX",
"GXGXGXGXGXGXGXGXGXGXGXGXGXGXX D c.r.H.n./.V.! d s V :.X GXGXGXGXGXGXGXGXGXGXGXGXGXGXGXGXGXGXGXGXGXGXGXGX$ qX|.Z.N.U.2 GXGXGXGXGXGXGXGXGXGXGXGXGXGXGXGX",
"GXGXGXGXGXGXGXGXGXGXGXGXGXGXGXX.c.g.H.u.N.` T d y N -.GXGXGXGXGXGXGXGXGXGXGXGXGXGXGXGXGXGXGXGXGXGXGXGXGX% !.] W.[.I.: GXGXGXGXGXGXGXGXGXGXGXGXGXGXGXGX",
"GXGXGXGXGXGXGXGXGXGXGXGXGXGX  C c.r.C.y.r.Q g x t L V + GXGXGXGXGXGXGXGXGXGXGXGXGXGXGXGXGXGXGXGXGXGXGXGXB !.] (./.%.GXGXGXGXGXGXGXGXGXGXGXGXGXGXGXGXGX",
"GXGXGXGXGXGXGXGXGXGXGXGXGXGXGX2 {.Q y.N.T.` f x ; =., GXGXGXGXGXGXGXGXGXGXGXGXGXGXGXGXGXGXGXGXGXGXGXGXGX1 +.4.+Xn.@.GXGXGXGXGXGXGXGXGXGXGXGXGXGXGXGXGX",
"GXGXGXGXGXGXGXGXGXGXGXGXGXGX# 2 c.i./.V.Y.! r | s 1.= GXGXGXGXGXGXGXGXGXGXGXGXGXGXGXGXGXGXGXGXGXGXGXGXGXN !.' ).s.o.GXGXGXGXGXGXGXGXGXGXGXGXGXGXGXGXGX",
"GXGXGXGXGXGXGXGXGXGXGXGXGXGXGXGXh.! g.` Y._ y [ - S & GXGXGXGXGXGXGXGXGXGXGXGXGXGXGXGXGXGXGXGXGXGXGXGXGX1 !.' '.s.o.GXGXGXGXGXGXGXGXGXGXGXGXGXGXGXGXGX",
"GXGXGXGXGXGXGXGXGXGXGXGXGXGXGX* E.g.%.! R.T d W > ;.GXGXGXGXGXGXGXGXGXGXGXGXGXGXGXGXGXGXGXGXGXGXGXGXGXGXl 6.` ).a.X.GXGXGXGXGXGXGXGXGXGXGXGXGXGXGXGXGX",
"GXGXGXGXGXGXGXGXGXGXGXGXGXGXGXGXg.%.` ` ~.T Y s t ;.GXGXGXGXGXGXGXGXGXGXGXGXGXGXGXGXGXGXGXGXGXGXGXGXGXGXP @.h.`.) J GXGXGXGXGXGXGXGXGXGXGXGXGXGXGXGXGX",
"GXGXGXGXGXGXGXGXGXGXGXGXGXGXGXo ' ` @.Q m.U U s i :.GXGXGXGXGXGXGXGXGXGXGXGXGXGXGXGXGXGXGXGXGXGXGXGXGXGXP @.g V.p.v GXGXGXGXGXGXGXGXGXGXGXGXGXGXGXGXGX",
"GXGXGXGXGXGXGXGXGXGXGXGXGXGXGXGXT ! @.@.^.%.s i z -.GXGXGXGXGXGXGXGXGXGXGXGXGXGXGXGXGXGXGXGXGXGXGXGXGXGXm I.g.g.m.h GXGXGXGXGXGXGXGXGXGXGXGXGXGXGXGXGX",
"GXGXGXGXGXGXGXGXGXGXGXGXGXGXGXGX/ / ' T 2.W e v t &.GXGXGXGXGXGXGXGXGXGXGXGXGXGXGXGXGXGXGXGXGXGXGXGXGXGXP m.g.p.] k GXGXGXGXGXGXGXGXGXGXGXGXGXGXGXGXGX",
"GXGXGXGXGXGXGXGXGXGXGXGXGXGXGXGX .( ( @.^.} ; J 2 8 GXGXGXGXGXGXGXGXGXGXGXGXGXGXGXGXGXGXGXGXGXGXGXGXGXO ^ 4.p.] c N GXGXGXGXGXGXGXGXGXGXGXGXGXGXGXGXGX",
"GXGXGXGXGXGXGXGXGXGXGXGXGXGXGXGXz / Y / U.o.- J j , GXGXGXGXGXGXGXGXGXGXGXGXGXGXGXGXGXGXGXGXGXGXGXGXGXGX^ M.p.M.O.B GXGXGXGXGXGXGXGXGXGXGXGXGXGXGXGXGX",
"GXGXGXGXGXGXGXGXGXGXGXGXGXGXGXGX2 ^ c ] } o.- D K o GXGXGXGXGXGXGXGXGXGXGXGXGXGXGXGXGXGXGXGXGXGXGXGXGX$ ^ Z.M.M.h & GXGXGXGXGXGXGXGXGXGXGXGXGXGXGXGXGX",
"GXGXGXGXGXGXGXGXGXGXGXGXGXGXGXGXZ +.Y / ..o.- L N O GXGXGXGXGXGXGXGXGXGXGXGXGXGXGXGXGXGXGXGXGXGXGXGXGXGX^ ) Q `  .& GXGXGXGXGXGXGXGXGXGXGXGXGXGXGXGXGX",
"GXGXGXGXGXGXGXGXGXGXGXGXGXGXGXGX4 z ^ #.@.{ - ,.0 , GXGXGXGXGXGXGXGXGXGXGXGXGXGXGXGXGXGXGXGXGXGXGXGXGXo ^ ) d.h.2.% GXGXGXGXGXGXGXGXGXGXGXGXGXGXGXGXGX",
"GXGXGXGXGXGXGXGXGXGXGXGXGXGXGXGXZ X.[ #.$.b - ,.j < GXGXGXGXGXGXGXGXGXGXGXGXGXGXGXGXGXGXGXGXGXGXGXGXGX, / ` i.` o.o GXGXGXGXGXGXGXGXGXGXGXGXGXGXGXGXGX",
"GXGXGXGXGXGXGXGXGXGXGXGXGXGXGXGX% X. .$.%.x - <.j , GXGXGXGXGXGXGXGXGXGXGXGXGXGXGXGXGXGXGXGXGXGXGXGXGX5 / ` ) / H GXGXGXGXGXGXGXGXGXGXGXGXGXGXGXGXGXGX",
"GXGXGXGXGXGXGXGXGXGXGXGXGXGXGXGX% a - ..Q.#.- v G & GXGXGXGXGXGXGXGXGXGXGXGXGXGXGXGXGXGXGXGXGXGXGXGXGX3 [ ' ` ^ S X GXGXGXGXGXGXGXGXGXGXGXGXGXGXGXGXGX",
"GXGXGXGXGXGXGXGXGXGXGXGXGXGXGXGX$ 1.b ......- h 5.O GXGXGXGXGXGXGXGXGXGXGXGXGXGXGXGXGXGXGXGXGXGXGXGXGX3 R _ ` o.S GXGXGXGXGXGXGXGXGXGXGXGXGXGXGXGXGXGX",
"GXGXGXGXGXGXGXGXGXGXGXGXGXGXGXGX% C t R $.R - l K o GXGXGXGXGXGXGXGXGXGXGXGXGXGXGXGXGXGXGXGXGXGXGXGXGX3 R ( _ o.;.GXGXGXGXGXGXGXGXGXGXGXGXGXGXGXGXGXGX",
"GXGXGXGXGXGXGXGXGXGXGXGXGXGXGXGX% D m #.$.s - J l X GXGXGXGXGXGXGXGXGXGXGXGXGXGXGXGXGXGXGXGXGXGXGXGXGX5 m / T X.-.GXGXGXGXGXGXGXGXGXGXGXGXGXGXGXGXGXGX",
"GXGXGXGXGXGXGXGXGXGXGXGXGXGXGXGX= >.z ^ o.x i 2 I & GXGXGXGXGXGXGXGXGXGXGXGXGXGXGXGXGXGXGXGXGXGXGXGX. 3  ./ T X.0 X GXGXGXGXGXGXGXGXGXGXGXGXGXGXGXGXGX",
"GXGXGXGXGXGXGXGXGXGXGXGXGXGXGXGX$ ;.u c { [ b $ K 7 GXGXGXGXGXGXGXGXGXGXGXGXGXGXGXGXGXGXGXGXGXGXGXGXGX5 ^ / T X.= GXGXGXGXGXGXGXGXGXGXGXGXGXGXGXGXGXGX",
"GXGXGXGXGXGXGXGXGXGXGXGXGXGXGXGXGXG m ^ R $.rXh =.3 GXGXGXGXGXGXGXGXGXGXGXGXGXGXGXGXGXGXGXGXGXGXGXGXGXV / / Y ,.&.GXGXGXGXGXGXGXGXGXGXGXGXGXGXGXGXGXGX",
"GXGXGXGXGXGXGXGXGXGXGXGXGXGXGXGXX * z M  ...rXH <., GXGXGXGXGXGXGXGXGXGXGXGXGXGXGXGXGXGXGXGXGXGXGXGXGXB ^ _ T v 8 GXGXGXGXGXGXGXGXGXGXGXGXGXGXGXGXGXGX",
"GXGXGXGXGXGXGXGXGXGXGXGXGXGXGXGXGX1 M Y U R O.L 9 5 GXGXGXGXGXGXGXGXGXGXGXGXGXGXGXGXGXGXGXGXGXGXGXGXGX;.R / T a 7 GXGXGXGXGXGXGXGXGXGXGXGXGXGXGXGXGXGX",
"GXGXGXGXGXGXGXGXGXGXGXGXGXGXGXGX+ 6 / Y f b - H O < GXGXGXGXGXGXGXGXGXGXGXGXGXGXGXGXGXGXGXGXGXGXGXGXGX=.b ..E a = GXGXGXGXGXGXGXGXGXGXGXGXGXGXGXGXGXGX",
"GXGXGXGXGXGXGXGXGXGXGXGXGXGXGXGXGX: x R b +.1 k & 5 GXGXGXGXGXGXGXGXGXGXGXGXGXGXGXGXGXGXGXGXGXGXGXGXo j t R ..6 GXGXGXGXGXGXGXGXGXGXGXGXGXGXGXGXGXGXGX",
"GXGXGXGXGXGXGXGXGXGXGXGXGXGXGXGX# 4 s i 4 m u u 2 8 GXGXGXGXGXGXGXGXGXGXGXGXGXGXGXGXGXGXGXGXGXGXGXGX& a ,.$.o.4 GXGXGXGXGXGXGXGXGXGXGXGXGXGXGXGXGXGXGX",
"GXGXGXGXGXGXGXGXGXGXGXGXGXGXGXGXGX& z h 4 O.O.j 6 < GXGXGXGXGXGXGXGXGXGXGXGXGXGXGXGXGXGXGXGXGXGXGXGX* 2 k R ..4 GXGXGXGXGXGXGXGXGXGXGXGXGXGXGXGXGXGXGX",
"GXGXGXGXGXGXGXGXGXGXGXGXGXGXGXGXGXX I z u J l 1 6 O GXGXGXGXGXGXGXGXGXGXGXGXGXGXGXGXGXGXGXGXGXGXGXGX* u  .#...6 GXGXGXGXGXGXGXGXGXGXGXGXGXGXGXGXGXGXGX",
"GXGXGXGXGXGXGXGXGXGXGXGXGXGXGXGXGXGXI 1 u O.v $ 0 O GXGXGXGXGXGXGXGXGXGXGXGXGXGXGXGXGXGXGXGXGXGXGXGX$ C z x d 6 GXGXGXGXGXGXGXGXGXGXGXGXGXGXGXGXGXGXGX",
"GXGXGXGXGXGXGXGXGXGXGXGXGXGXGXGXGX  I & k P k o 0 < GXGXGXGXGXGXGXGXGXGXGXGXGXGXGXGXGXGXGXGXGXGXGXGXGXS 2 Y ^ *.GXGXGXGXGXGXGXGXGXGXGXGXGXGXGXGXGXGXGX",
"GXGXGXGXGXGXGXGXGXGXGXGXGXGXGXGXGXGX=., C 7.B B 0 O GXGXGXGXGXGXGXGXGXGXGXGXGXGXGXGXGXGXGXGXGXGXGXGXX ;.k k 2 5 GXGXGXGXGXGXGXGXGXGXGXGXGXGXGXGXGXGXGX",
"GXGXGXGXGXGXGXGXGXGXGXGXGXGXGXGXGX@ 5 : C F GX;.9 O GXGXGXGXGXGXGXGXGXGXGXGXGXGXGXGXGXGXGXGXGXGXGXGXGX5 & & GXGXGXGXGXGXGXGXGXGXGXGXGXGXGXGXGXGXGXGXGX",
"GXGXGXGXGXGXGXGXGXGXGXGXGXGXGXGXGXGX@ & = 7   -.: 9 GXGXGXGXGXGXGXGXGXGXGXGXGXGXGXGXGXGXGXGXGXGXGXGXGXGXGXGXGXGXGXGXGXGXGXGXGXGXGXGXGXGXGXGXGXGXGXGXGX",
"GXGXGXGXGXGXGXGXGXGXGXGXGXGXGXGXGXGXGXGXGXGXGXB % V GXGXGXGXGXGXGXGXGXGXGXGXGXGXGXGXGXGXGXGXGXGXGXGXGXGXGXGXGXGXGXGXGXGXGXGXGXGXGXGXGXGXGXGXGXGXGXGXGX",
"GXGXGXGXGXGXGXGXGXGXGXGXGXGXGXGXGXGXGXGXGXGXGX8 =.B GXGXGXGXGXGXGXGXGXGXGXGXGXGXGXGXGXGXGXGXGXGXGXGXGXGXGXGXGXGXGXGXGXGXGXGXGXGXGXGXGXGXGXGXGXGXGXGXGX",
"GXGXGXGXGXGXGXGXGXGXGXGXGXGXGXGXGXGXGXGXGXGXGXGX,.3 GXGXGXGXGXGXGXGXGXGXGXGXGXGXGXGXGXGXGXGXGXGXGXGXGXGXGXGXGXGXGXGXGXGXGXGXGXGXGXGXGXGXGXGXGXGXGXGXGX",
"GXGXGXGXGXGXGXGXGXGXGXGXGXGXGXGXGXGXGXGXGXGXGXGX-.0   GXGXGXGXGXGXGXGXGXGXGXGXGXGXGXGXGXGXGXGXGXGXGXGXGXGXGXGXGXGXGXGXGXGXGXGXGXGXGXGXGXGXGXGXGXGXGXGX",
"GXGXGXGXGXGXGXGXGXGXGXGXGXGXGXGXGXGXGXGXGXGXGXGXw w GXGXGXGXGXGXGXGXGXGXGXGXGXGXGXGXGXGXGXGXGXGXGXGXGXGXGXGXGXGXGXGXGXGXGXGXGXGXGXGXGXGXGXGXGXGXGXGXGX",
"GXGXGXGXGXGXGXGXGXGXGXGXGXGXGXGXGXGXGXGXGXGXGXGX7 w X GXGXGXGXGXGXGXGXGXGXGXGXGXGXGXGXGXGXGXGXGXGXGXGXGXGXGXGXGXGXGXGXGXGXGXGXGXGXGXGXGXGXGXGXGXGXGXGX",
"GXGXGXGXGXGXGXGXGXGXGXGXGXGXGXGXGXGXGXGXGXGXGXGXo 8 GXGXGXGXGXGXGXGXGXGXGXGXGXGXGXGXGXGXGXGXGXGXGXGXGXGXGXGXGXGXGXGXGXGXGXGXGXGXGXGXGXGXGXGXGXGXGXGXGX",
"GXGXGXGXGXGXGXGXGXGXGXGXGXGXGXGXGXGXGXGXGXGXGXGXGXq + GXGXGXGXGXGXGXGXGXGXGXGXGXGXGXGXGXGXGXGXGXGXGXGXGXGXGXGXGXGXGXGXGXGXGXGXGXGXGXGXGXGXGXGXGXGXGXGX",
"GXGXGXGXGXGXGXGXGXGXGXGXGXGXGXGXGXGXGXGXGXGXGXGXGXq # GXGXGXGXGXGXGXGXGXGXGXGXGXGXGXGXGXGXGXGXGXGXGXGXGXGXGXGXGXGXGXGXGXGXGXGXGXGXGXGXGXGXGXGXGXGXGXGX",
"GXGXGXGXGXGXGXGXGXGXGXGXGXGXGXGXGXGXGXGXGXGXGXGXGX. GXGXGXGXGXGXGXGXGXGXGXGXGXGXGXGXGXGXGXGXGXGXGXGXGXGXGXGXGXGXGXGXGXGXGXGXGXGXGXGXGXGXGXGXGXGXGXGXGX",
"GXGXGXGXGXGXGXGXGXGXGXGXGXGXGXGXGXGXGXGXGXGXGXGXGXGXq GXGXGXGXGXGXGXGXGXGXGXGXGXGXGXGXGXGXGXGXGXGXGXGXGXGXGXGXGXGXGXGXGXGXGXGXGXGXGXGXGXGXGXGXGXGXGXGX"
};
